<?xml version="1.0" standalone="no"?>
<!DOCTYPE svg PUBLIC "-//W3C//DTD SVG 1.1//EN" "http://www.w3.org/Graphics/SVG/1.1/DTD/svg11.dtd" >
<svg>
<metadata>
Created by FontForge 20090914 at Thu Feb 16 08:54:06 2012
 By www-data
Copyright (c) Elektrosmog, Valentin HIndermann, Marco Walser and Pierre Miedinger. www.lineto.com, 2006. All rights reserved.
</metadata>
<defs>
<font id="BrauerNeue-Bold" horiz-adv-x="541" >
  <font-face 
    font-family="BrauerNeue-Bold"
    font-weight="400"
    font-stretch="normal"
    units-per-em="1000"
    panose-1="2 0 5 6 3 0 0 2 0 4"
    ascent="814"
    descent="-186"
    x-height="535"
    cap-height="709"
    bbox="-34 -240 853 921"
    underline-thickness="45"
    underline-position="-71"
    stemh="106"
    stemv="113"
    unicode-range="U+0020-U+FB02"
  />
<missing-glyph horiz-adv-x="600" 
d="M90 0v712h420v-712h-420zM166 76h268v560h-268v-560z" />
    <glyph glyph-name=".notdef" horiz-adv-x="600" 
d="M90 0v712h420v-712h-420zM166 76h268v560h-268v-560z" />
    <glyph glyph-name="space" unicode=" " horiz-adv-x="177" 
 />
    <glyph glyph-name="Eth" unicode="&#xd0;" horiz-adv-x="509" 
d="M460 579v-449c0 -70 -67 -130 -138 -130h-239c-16 0 -29 13 -29 28v247h-54c-15 0 -28 13 -28 29v40c0 16 13 29 28 29h54v308c0 15 13 28 29 28h239c71 0 138 -60 138 -130zM177 373h50c15 0 28 -13 28 -29v-40c0 -16 -13 -29 -28 -29h-50v-173h94c40 0 65 24 65 70v364
c0 46 -25 71 -65 71h-94v-234z" />
    <glyph glyph-name="eth" unicode="&#xf0;" horiz-adv-x="513" 
d="M309 160v196c0 41 -29 77 -75 77s-75 -36 -75 -77v-196c0 -41 29 -77 75 -77s75 36 75 77zM422 569h34c16 0 28 -12 28 -27v-57c0 -15 -12 -27 -28 -27h-34v-298c0 -93 -82 -183 -187 -183c-104 0 -189 90 -189 183v208c0 93 54 169 155 169c38 0 75 -8 108 -34v69
c0 41 -28 77 -74 77c-16 0 -28 12 -28 27v52c0 15 12 27 28 27c105 0 187 -93 187 -186z" />
    <glyph glyph-name="Lslash" unicode="&#x141;" horiz-adv-x="416" 
d="M-20 244l100 118v319c0 15 13 28 29 28h65c16 0 29 -13 29 -28v-174l45 53c6 7 14 10 22 10c7 0 13 -3 18 -7l36 -29c6 -6 9 -14 9 -22c0 -6 -2 -13 -6 -18l-124 -146v-242h186c16 0 29 -13 29 -28v-50c0 -15 -13 -28 -29 -28h-280c-16 0 -29 13 -29 28v175l-21 -25
c-5 -6 -12 -10 -20 -10c-7 0 -14 2 -20 7l-34 29c-7 6 -11 14 -11 22c0 7 2 13 6 18z" />
    <glyph glyph-name="lslash" unicode="&#x142;" horiz-adv-x="406" 
d="M29 244l105 124v313c0 15 13 28 29 28h55c16 0 29 -13 29 -28v-180l50 59c5 6 13 10 21 10c7 0 13 -2 19 -7l36 -29c6 -6 9 -14 9 -22c0 -6 -2 -13 -6 -18l-129 -152v-314c0 -15 -13 -28 -29 -28h-55c-16 0 -29 13 -29 28v180l-26 -30c-5 -6 -12 -10 -20 -10
c-7 0 -14 2 -20 7l-34 29c-7 6 -11 14 -11 22c0 7 2 13 6 18z" />
    <glyph glyph-name="Scaron" unicode="&#x160;" horiz-adv-x="489" 
d="M161 536v-10c0 -40 21 -54 71 -86l130 -84c76 -49 89 -88 89 -181c0 -126 -85 -195 -208 -195c-118 0 -206 67 -206 195v41c0 15 13 28 29 28h64c16 0 29 -13 29 -28v-41c0 -51 34 -89 84 -89c55 0 84 34 84 89v15c0 41 -22 55 -57 78l-158 103c-61 40 -75 102 -75 159
c0 126 82 201 208 201c119 0 206 -66 206 -195v-22c0 -15 -13 -28 -29 -28h-64c-16 0 -29 13 -29 28v22c0 51 -29 89 -84 89s-84 -34 -84 -89zM229 759c-13 0 -19 12 -27 23l-80 107c-2 4 -3 8 -3 11c0 10 8 16 18 16h35c15 0 20 -9 30 -21l50 -56l50 56c10 12 15 21 30 21
h35c10 0 18 -6 18 -16c0 -3 -1 -7 -3 -11l-80 -107c-8 -11 -14 -23 -27 -23h-46z" />
    <glyph glyph-name="scaron" unicode="&#x161;" horiz-adv-x="441" 
d="M216 452c-33 0 -69 -15 -69 -53c0 -20 5 -34 31 -45l147 -67c57 -26 84 -65 84 -139c0 -93 -80 -165 -187 -165s-190 82 -190 173c0 15 13 28 29 28h52c16 0 29 -13 29 -28c0 -44 32 -73 80 -73c54 0 76 34 76 64c0 17 -7 36 -36 50l-152 72c-48 23 -72 69 -72 122
c0 99 73 161 177 161c103 0 183 -63 183 -157v-9c0 -15 -13 -28 -29 -28h-52c-16 0 -29 13 -29 28c0 54 -37 66 -72 66zM199 589c-13 0 -19 12 -27 23l-80 107c-2 4 -3 8 -3 11c0 10 8 16 18 16h35c15 0 20 -9 30 -21l50 -56l50 56c10 12 15 21 30 21h35c10 0 18 -6 18 -16
c0 -3 -1 -7 -3 -11l-80 -107c-8 -11 -14 -23 -27 -23h-46z" />
    <glyph glyph-name="Yacute" unicode="&#xdd;" horiz-adv-x="509" 
d="M221 0c-16 0 -29 13 -29 28v300l-177 350c-2 4 -2 8 -2 10c0 12 8 21 22 21h64c16 0 23 -5 36 -31l119 -230l119 230c13 26 20 31 36 31h64c14 0 22 -9 22 -21c0 -2 0 -6 -2 -10l-177 -350v-300c0 -15 -13 -28 -29 -28h-66zM360 877l-64 -91c-12 -16 -17 -21 -36 -21h-36
c-15 0 -24 9 -24 21c0 5 1 10 4 15l35 76c7 15 21 28 36 28h66c11 0 22 -9 22 -19c0 -2 -1 -6 -3 -9z" />
    <glyph glyph-name="yacute" unicode="&#xfd;" horiz-adv-x="452" 
d="M233 123l97 391c5 15 12 21 26 21h72c12 0 20 -9 20 -20c0 -2 -1 -5 -2 -9l-159 -571c-27 -98 -74 -119 -143 -119h-54c-15 0 -28 13 -28 29v44c0 16 13 29 28 29h46c31 0 41 10 41 27c0 8 -3 19 -6 29l-158 532c-1 4 -2 7 -2 9c0 11 8 20 20 20h72c14 0 22 -6 26 -21z
M345 710l-64 -91c-12 -16 -17 -21 -36 -21h-36c-15 0 -24 9 -24 21c0 5 1 10 4 15l35 76c7 15 21 28 36 28h66c11 0 22 -9 22 -19c0 -2 -1 -6 -3 -9z" />
    <glyph glyph-name="Thorn" unicode="&#xde;" horiz-adv-x="475" 
d="M319 326v38c0 51 -22 66 -62 66h-79v-169h79c40 0 62 14 62 65zM178 681v-149h131c71 0 133 -60 133 -130v-127c0 -65 -53 -116 -117 -116h-147v-131c0 -15 -13 -28 -29 -28h-65c-16 0 -29 13 -29 28v653c0 15 13 28 29 28h65c16 0 29 -13 29 -28z" />
    <glyph glyph-name="thorn" unicode="&#xfe;" horiz-adv-x="457" 
d="M415 404v-283c0 -76 -61 -138 -132 -138c-58 0 -104 31 -124 77v-205c0 -15 -13 -28 -29 -28h-55c-16 0 -29 13 -29 28v826c0 15 13 28 29 28h55c16 0 29 -13 29 -28v-206c20 46 66 77 124 77c74 0 132 -64 132 -148zM302 173v199c0 48 -26 80 -71 80
c-44 0 -72 -39 -72 -80v-199c0 -41 28 -80 72 -80c45 0 71 33 71 80z" />
    <glyph glyph-name="Zcaron" unicode="&#x17d;" horiz-adv-x="514" 
d="M41 29v52c0 40 5 49 15 65l281 452h-246c-15 0 -28 13 -28 29v53c0 16 13 29 28 29h362c15 0 28 -13 28 -29v-52c0 -19 0 -33 -8 -46l-292 -471h273c15 0 28 -13 28 -29v-53c0 -16 -13 -29 -28 -29h-385c-15 0 -28 13 -28 29zM269 757c-13 0 -19 12 -27 23l-80 107
c-2 4 -3 8 -3 11c0 10 8 16 18 16h35c15 0 20 -9 30 -21l50 -56l50 56c10 12 15 21 30 21h35c10 0 18 -6 18 -16c0 -3 -1 -7 -3 -11l-80 -107c-8 -11 -14 -23 -27 -23h-46z" />
    <glyph glyph-name="zcaron" unicode="&#x17e;" horiz-adv-x="432" 
d="M396 506v-51c0 -31 0 -38 -11 -52l-225 -298h215c15 0 29 -13 29 -29v-47c0 -16 -13 -29 -28 -29h-312c-15 0 -32 13 -32 29v48c0 31 0 39 10 52l231 301h-194c-15 0 -28 13 -28 29v48c0 16 11 28 26 28h291c15 0 28 -13 28 -29zM216 588c-13 0 -19 12 -27 23l-80 107
c-2 4 -3 8 -3 11c0 10 8 16 18 16h35c15 0 20 -9 30 -21l50 -56l50 56c10 12 15 21 30 21h35c10 0 18 -6 18 -16c0 -3 -1 -7 -3 -11l-80 -107c-8 -11 -14 -23 -27 -23h-46z" />
    <glyph glyph-name="onehalf" unicode="&#xbd;" horiz-adv-x="740" 
d="M48 620v27c0 9 8 16 17 16c33 3 42 20 49 35c3 7 7 12 16 12h39c10 0 17 -8 17 -17v-376c0 -9 -7 -16 -17 -16h-39c-9 0 -17 7 -17 16v287h-48c-9 0 -17 7 -17 16zM526 714c0 -3 -1 -7 -2 -11l-265 -693c-10 -26 -18 -27 -33 -27h-38c-12 0 -18 8 -18 18c0 3 1 7 3 11
l265 693c9 25 18 26 33 26h38c11 0 17 -8 17 -17zM541 71h133c8 0 16 -8 16 -17v-36c0 -9 -8 -17 -16 -17h-197c-9 0 -16 8 -16 17v41c0 21 3 30 10 38l127 161c18 22 22 30 22 43c0 32 -20 49 -49 49c-33 0 -48 -20 -48 -55v-4c0 -9 -8 -12 -17 -12h-32c-10 0 -17 7 -17 16
v15c0 68 53 108 114 108c59 0 120 -37 120 -108c0 -27 -2 -50 -25 -79z" />
    <glyph glyph-name="onequarter" unicode="&#xbc;" horiz-adv-x="725" 
d="M48 621v27c0 9 8 16 17 16c33 3 42 20 49 35c3 7 7 12 16 12h39c10 0 17 -8 17 -17v-377c0 -9 -7 -16 -17 -16h-39c-9 0 -17 7 -17 16v288h-48c-9 0 -17 7 -17 16zM484 165h79v188zM416 173l94 221c5 9 13 16 22 16h87c9 0 17 -8 17 -17v-229h28c9 0 16 -8 16 -17v-33
c0 -9 -7 -17 -16 -17h-28v-81c0 -9 -8 -16 -17 -16h-38c-10 0 -18 7 -18 16v81h-138c-9 0 -16 8 -16 17v32c0 9 1 15 7 27zM526 714c0 -3 -1 -7 -2 -11l-265 -693c-10 -26 -18 -27 -33 -27h-38c-12 0 -18 8 -18 18c0 3 1 7 3 11l265 693c9 25 18 26 33 26h38
c11 0 17 -8 17 -17z" />
    <glyph glyph-name="onesuperior" unicode="&#xb9;" horiz-adv-x="240" 
d="M38 621v27c0 9 8 16 17 16c33 3 42 20 49 35c3 7 7 12 16 12h39c10 0 17 -8 17 -17v-377c0 -9 -7 -16 -17 -16h-39c-9 0 -17 7 -17 16v288h-48c-9 0 -17 7 -17 16z" />
    <glyph glyph-name="threequarters" unicode="&#xbe;" horiz-adv-x="778" 
d="M537 165h79v188zM469 173l94 221c5 9 13 16 22 16h87c9 0 17 -8 17 -17v-229h28c9 0 16 -8 16 -17v-33c0 -9 -7 -17 -16 -17h-28v-81c0 -9 -8 -16 -17 -16h-38c-10 0 -18 7 -18 16v81h-138c-9 0 -16 8 -16 17v32c0 9 1 15 7 27zM576 714c0 -3 -1 -7 -2 -11l-265 -693
c-10 -26 -18 -27 -33 -27h-38c-12 0 -18 8 -18 18c0 3 1 7 3 11l265 693c9 25 18 26 33 26h38c11 0 17 -8 17 -17zM54 604v22c0 56 48 99 111 99s113 -43 113 -99v-31c0 -36 -2 -57 -40 -78c46 -16 46 -48 46 -86v-29c0 -69 -55 -106 -119 -106c-65 0 -117 36 -117 106v18
c0 9 7 16 17 16h36c10 0 17 -7 17 -16v-6c0 -28 15 -52 47 -52s49 20 49 52v32c0 22 -16 38 -37 38h-19c-9 0 -17 8 -17 17v35c0 10 8 17 17 17h13c22 0 38 16 38 38v22c0 29 -17 46 -44 46c-30 0 -42 -20 -42 -46v-5c0 -9 -8 -20 -17 -20h-35c-9 0 -17 7 -17 16z" />
    <glyph glyph-name="threesuperior" unicode="&#xb3;" horiz-adv-x="333" 
d="M54 604v22c0 56 48 99 111 99s113 -43 113 -99v-31c0 -36 -2 -57 -40 -78c46 -16 46 -48 46 -86v-29c0 -69 -55 -106 -119 -106c-65 0 -117 36 -117 106v18c0 9 7 16 17 16h36c10 0 17 -7 17 -16v-6c0 -28 15 -52 47 -52s49 20 49 52v32c0 22 -16 38 -37 38h-19
c-9 0 -17 8 -17 17v35c0 10 8 17 17 17h13c22 0 38 16 38 38v22c0 29 -17 46 -44 46c-30 0 -42 -20 -42 -46v-5c0 -9 -8 -20 -17 -20h-35c-9 0 -17 7 -17 16z" />
    <glyph glyph-name="twosuperior" unicode="&#xb2;" horiz-adv-x="331" 
d="M132 371h133c8 0 16 -8 16 -17v-36c0 -9 -8 -17 -16 -17h-197c-9 0 -16 8 -16 17v41c0 21 3 30 10 38l127 161c18 22 22 30 22 43c0 32 -20 49 -49 49c-33 0 -48 -20 -48 -55v-4c0 -9 -8 -12 -17 -12h-32c-10 0 -17 7 -17 16v15c0 68 53 108 114 108
c59 0 120 -37 120 -108c0 -27 -2 -50 -25 -79z" />
    <glyph glyph-name="brokenbar" unicode="&#xa6;" horiz-adv-x="220" 
d="M171 454c0 -14 -12 -26 -27 -26h-69c-15 0 -27 12 -27 26v228c0 15 12 27 27 27h69c15 0 27 -12 27 -27v-228zM171 26c0 -14 -12 -26 -27 -26h-69c-15 0 -27 12 -27 26v228c0 15 12 27 27 27h69c15 0 27 -12 27 -27v-228z" />
    <glyph glyph-name="minus" unicode="&#x2212;" 
d="M73 317h393c15 0 28 -13 28 -29v-40c0 -16 -13 -29 -28 -29h-393c-15 0 -28 13 -28 29v40c0 16 13 29 28 29z" />
    <glyph glyph-name="multiply" unicode="&#xd7;" 
d="M377 92l-107 108l-108 -108c-6 -5 -12 -8 -19 -8s-16 3 -21 8l-29 29c-4 5 -7 12 -7 19s2 15 7 21l108 107l-107 107c-5 5 -8 12 -8 19s3 15 8 21l29 29c5 5 14 7 21 7s13 -2 19 -7l107 -107l99 100c5 4 11 7 18 7c8 0 15 -3 21 -8l28 -28c7 -7 10 -14 10 -22
c0 -7 -3 -13 -8 -18l-100 -100l108 -107c5 -4 8 -11 8 -18s-3 -15 -9 -21l-28 -28c-7 -7 -14 -10 -21 -10s-14 3 -19 8z" />
    <glyph glyph-name="exclam" unicode="!" horiz-adv-x="279" 
d="M102 709h74c16 0 29 -13 29 -28v-137c0 -96 -34 -320 -34 -320c-1 -14 -12 -27 -27 -27h-10c-15 0 -26 13 -27 27c0 0 -34 224 -34 320v137c0 15 13 28 29 28zM205 83v-55c0 -15 -13 -28 -29 -28h-74c-16 0 -29 13 -29 28v55c0 15 13 28 29 28h74c16 0 29 -13 29 -28z
" />
    <glyph glyph-name="quotedbl" unicode="&#x22;" horiz-adv-x="397" 
d="M58 506v175c0 15 13 28 29 28h34c16 0 29 -13 29 -28v-175c0 -15 -13 -28 -29 -28h-34c-16 0 -29 13 -29 28zM246 506v175c0 15 13 28 29 28h34c16 0 29 -13 29 -28v-175c0 -15 -13 -28 -29 -28h-34c-16 0 -29 13 -29 28z" />
    <glyph glyph-name="numbersign" unicode="#" horiz-adv-x="597" 
d="M132 527h61l35 155c3 15 16 21 31 21h34c13 0 21 -9 21 -21c0 -2 0 -7 -2 -14l-32 -141h111l35 155c3 15 16 21 31 21h34c13 0 21 -9 21 -21c0 -2 0 -7 -2 -14l-32 -141h56c13 0 24 -7 24 -17c0 -2 -3 -14 -4 -18l-9 -41c-3 -14 -12 -22 -27 -22h-62l-32 -141h56
c13 0 24 -7 24 -17c0 -2 -3 -14 -4 -18l-9 -41c-3 -14 -12 -22 -27 -22h-62l-38 -168c-4 -15 -16 -21 -31 -21h-34c-13 0 -21 9 -21 21c0 2 0 7 2 14l35 154h-111l-38 -168c-4 -15 -16 -21 -31 -21h-34c-13 0 -21 9 -21 21c0 2 0 7 2 14l35 154h-55c-13 0 -24 7 -24 17
c0 2 3 14 4 18l9 41c3 14 12 22 27 22h61l32 141h-55c-13 0 -24 7 -24 17c0 2 3 14 4 18l9 41c3 14 12 22 27 22zM258 429l-32 -141h111l32 141h-111z" />
    <glyph glyph-name="dollar" unicode="$" horiz-adv-x="597" 
d="M243 -79v61c-90 18 -152 82 -152 190v44c0 15 13 28 29 28h64c16 0 29 -13 29 -28v-44c0 -51 34 -89 84 -89c55 0 84 34 84 89v18c0 46 -30 60 -72 88l-143 93c-61 40 -75 102 -75 159c0 106 58 176 152 195v60c0 16 12 28 27 28h57c15 0 27 -12 27 -28v-60
c89 -18 151 -81 151 -189v-22c0 -15 -13 -28 -29 -28h-64c-16 0 -29 13 -29 28v22c0 51 -29 89 -84 89s-84 -34 -84 -89v-10c0 -40 21 -54 71 -86l130 -84c76 -49 89 -91 89 -184c0 -106 -60 -171 -151 -189v-62c0 -16 -12 -28 -27 -28h-57c-15 0 -27 12 -27 28z" />
    <glyph glyph-name="percent" unicode="%" horiz-adv-x="735" 
d="M555 266c-30 0 -48 -22 -48 -49v-122c0 -27 18 -49 48 -49s48 22 48 49v122c0 27 -18 49 -48 49zM555 -24c-54 0 -125 40 -125 124v112c0 84 71 124 125 124s125 -40 125 -124v-112c0 -84 -71 -124 -125 -124zM179 639c-30 0 -48 -22 -48 -49v-122c0 -27 18 -49 48 -49
s48 22 48 49v122c0 27 -18 49 -48 49zM179 349c-54 0 -125 40 -125 124v112c0 84 71 124 125 124s125 -40 125 -124v-112c0 -84 -71 -124 -125 -124zM538 692c0 -3 -1 -7 -2 -11l-277 -724c-10 -26 -18 -27 -33 -27h-38c-12 0 -18 8 -18 18c0 3 1 7 3 11l277 724
c9 25 18 26 33 26h38c11 0 17 -8 17 -17z" />
    <glyph glyph-name="ampersand" unicode="&#x26;" horiz-adv-x="592" 
d="M330 563c-1 29 -12 64 -61 64c-47 0 -59 -33 -59 -61c0 -33 23 -70 52 -108c52 34 68 63 68 105zM363 122l-132 206c-49 -29 -80 -69 -80 -129c0 -67 34 -116 116 -116c37 0 67 8 96 39zM486 116l50 -79c4 -7 4 -11 4 -16c0 -13 -11 -21 -22 -21h-58c-17 0 -26 12 -32 22
l-8 13c-37 -35 -88 -58 -156 -58c-155 0 -218 106 -218 221c0 95 55 168 130 215c-34 47 -65 92 -65 155c0 97 66 163 158 163c91 0 161 -68 161 -165c0 -87 -43 -135 -113 -187l107 -166c10 22 14 46 18 72c2 16 13 28 29 28h43c16 0 29 -13 29 -28v-4
c-7 -55 -25 -112 -57 -165z" />
    <glyph glyph-name="quotesingle" unicode="'" horiz-adv-x="249" 
d="M58 506v175c0 15 13 28 29 28h34c16 0 29 -13 29 -28v-175c0 -15 -13 -28 -29 -28h-34c-16 0 -29 13 -29 28z" />
    <glyph glyph-name="parenleft" unicode="(" horiz-adv-x="329" 
d="M73 258c0 156 37 309 100 444c11 23 20 28 34 28h65c11 0 18 -9 18 -18c0 -4 -1 -7 -2 -9c-46 -71 -107 -253 -107 -445s61 -374 107 -445c1 -2 2 -5 2 -9c0 -9 -7 -18 -18 -18h-65c-14 0 -23 5 -34 28c-63 135 -100 288 -100 444z" />
    <glyph glyph-name="parenright" unicode=")" horiz-adv-x="329" 
d="M255 258c0 -156 -37 -309 -100 -444c-11 -23 -20 -28 -34 -28h-65c-11 0 -18 9 -18 18c0 4 1 7 2 9c46 71 107 253 107 445s-61 374 -107 445c-1 2 -2 5 -2 9c0 9 7 18 18 18h65c14 0 23 -5 34 -28c63 -135 100 -288 100 -444z" />
    <glyph glyph-name="asterisk" unicode="*" horiz-adv-x="509" 
d="M278 709c20 0 29 -18 29 -37c0 -14 -2 -47 -5 -112l100 41c6 2 11 3 17 3c12 0 23 -5 28 -18l16 -45c1 -3 2 -7 2 -10c0 -14 -12 -25 -27 -30c-13 -5 -41 -12 -103 -31c37 -53 56 -78 64 -91c5 -8 8 -17 8 -25c0 -9 -5 -17 -14 -22l-40 -26c-5 -3 -9 -5 -14 -5
c-11 0 -22 9 -30 22c-7 11 -23 37 -55 91c-32 -54 -48 -80 -55 -91c-8 -13 -19 -22 -30 -22c-5 0 -9 2 -14 5l-40 26c-9 5 -14 13 -14 22c0 8 3 17 8 25c8 13 27 38 64 91c-62 19 -90 26 -103 31c-15 5 -27 16 -27 30c0 3 1 7 2 10l16 45c5 13 16 18 28 18c6 0 11 -1 17 -3
l100 -41c-3 65 -5 98 -5 112c0 19 9 37 29 37h48z" />
    <glyph glyph-name="plus" unicode="+" 
d="M224 317v190c0 15 13 28 29 28h34c16 0 29 -13 29 -28v-190h168c15 0 28 -13 28 -29v-40c0 -16 -13 -29 -28 -29h-168v-190c0 -15 -13 -28 -29 -28h-34c-16 0 -29 13 -29 28v190h-168c-15 0 -28 13 -28 29v40c0 16 13 29 28 29h168z" />
    <glyph glyph-name="comma" unicode="," horiz-adv-x="262" 
d="M105 -111h-14c-8 0 -15 9 -15 19v12c0 10 7 19 15 19h14c17 0 39 15 39 39c0 16 -8 22 -18 22h-35c-15 0 -27 12 -27 27v57c0 15 12 27 27 27h79c14 0 26 -12 26 -27v-84c0 -77 -50 -111 -91 -111z" />
    <glyph glyph-name="hyphen" unicode="-" horiz-adv-x="404" 
d="M56 317h291c15 0 28 -13 28 -29v-40c0 -16 -13 -29 -28 -29h-291c-15 0 -28 13 -28 29v40c0 16 13 29 28 29z" />
    <glyph glyph-name="period" unicode="." horiz-adv-x="262" 
d="M196 83v-55c0 -15 -13 -28 -29 -28h-74c-16 0 -29 13 -29 28v55c0 15 13 28 29 28h74c16 0 29 -13 29 -28z" />
    <glyph glyph-name="slash" unicode="/" horiz-adv-x="409" 
d="M388 692c0 -3 -1 -7 -2 -11l-277 -724c-10 -26 -18 -27 -33 -27h-38c-12 0 -18 8 -18 18c0 3 1 7 3 11l277 724c9 25 18 26 33 26h38c11 0 17 -8 17 -17z" />
    <glyph glyph-name="zero" unicode="0" horiz-adv-x="505" 
d="M52 172v364c0 124 87 193 200 193s200 -69 200 -193v-364c0 -124 -87 -193 -200 -193s-200 69 -200 193zM167 536v-364c0 -52 34 -89 85 -89s85 37 85 89v364c0 52 -34 89 -85 89s-85 -37 -85 -89z" />
    <glyph glyph-name="one" unicode="1" horiz-adv-x="390" 
d="M56 564v38c0 15 13 28 29 28c55 4 69 34 82 59c6 11 12 20 28 20h61c16 0 29 -13 29 -28v-653c0 -15 -13 -28 -29 -28h-61c-16 0 -29 13 -29 28v508h-81c-16 0 -29 13 -29 28z" />
    <glyph glyph-name="two" unicode="2" horiz-adv-x="464" 
d="M173 110h230c15 0 28 -13 28 -29v-52c0 -16 -13 -29 -28 -29h-331c-15 0 -28 13 -28 29v70c0 34 8 49 18 63l216 299c28 39 39 54 39 85c0 54 -40 79 -84 79c-49 0 -82 -31 -82 -90v-11c0 -15 -13 -28 -29 -28h-54c-16 0 -29 13 -29 28v23c0 116 89 182 194 182
c102 0 199 -61 199 -182c0 -45 -4 -82 -40 -133z" />
    <glyph glyph-name="three" unicode="3" horiz-adv-x="475" 
d="M44 527v34c0 94 82 168 188 168s188 -73 188 -168v-57c0 -63 -3 -96 -68 -131c79 -28 79 -82 79 -146v-55c0 -131 -91 -193 -199 -193c-111 0 -199 64 -199 193v14c0 15 13 28 29 28h57c16 0 29 -13 29 -28v-15c0 -48 30 -88 84 -88s83 33 83 88v85c0 37 -27 64 -63 64
h-32c-15 0 -28 13 -28 29v53c0 16 13 29 28 29h23c36 0 63 26 63 63v54c0 48 -28 77 -74 77c-50 0 -76 -34 -76 -77v-21c0 -15 -13 -28 -29 -28h-54c-16 0 -29 13 -29 28z" />
    <glyph glyph-name="four" unicode="4" horiz-adv-x="487" 
d="M280 275v337l-143 -337h143zM280 165h-236c-15 0 -28 13 -28 29v55c0 14 3 24 12 45l168 388c8 16 23 27 38 27h130c16 0 29 -13 29 -28v-408h47c15 0 28 -13 28 -29v-50c0 -16 -13 -29 -28 -29h-47v-137c0 -15 -13 -28 -29 -28h-55c-16 0 -29 13 -29 28v137z" />
    <glyph glyph-name="five" unicode="5" horiz-adv-x="477" 
d="M159 298c0 -12 -10 -22 -22 -22h-62c-16 0 -29 13 -29 28v376c0 15 13 28 29 28h317c16 0 29 -13 29 -28v-52c0 -15 -13 -28 -29 -28h-232v-177c22 34 74 64 130 64c93 0 150 -54 150 -189v-128c0 -119 -93 -193 -200 -193c-111 0 -194 72 -194 193v3c0 15 13 28 29 28
h55c16 0 29 -13 29 -28v-3c0 -51 33 -87 81 -87c45 0 86 32 86 87v116c0 56 -31 87 -84 87c-48 0 -83 -30 -83 -75z" />
    <glyph glyph-name="six" unicode="6" horiz-adv-x="467" 
d="M159 278v-118c0 -41 29 -77 75 -77s75 36 75 77v118c0 41 -29 77 -75 77s-75 -36 -75 -77zM425 555c0 -15 -13 -28 -29 -28h-48c-16 0 -29 13 -29 28c-3 42 -32 70 -75 70c-45 0 -85 -20 -85 -86v-126c25 39 72 57 116 57c105 0 147 -79 147 -174v-136
c0 -93 -84 -181 -188 -181c-105 0 -188 88 -188 181v379c0 108 82 190 198 190s178 -83 181 -174z" />
    <glyph glyph-name="seven" unicode="7" horiz-adv-x="419" 
d="M274 599h-233c-16 0 -29 13 -29 28v54c0 15 13 28 29 28h330c16 0 29 -13 29 -28v-60c0 -21 -8 -47 -12 -58l-197 -536c-5 -14 -12 -27 -27 -27h-75c-12 0 -23 10 -23 27c0 4 1 8 3 13z" />
    <glyph glyph-name="eight" unicode="8" horiz-adv-x="479" 
d="M239 83c50 0 84 38 84 89v62c0 51 -34 89 -84 89s-84 -38 -84 -89v-62c0 -51 34 -89 84 -89zM239 425c46 0 77 32 77 83v33c0 51 -31 84 -77 84s-77 -33 -77 -84v-33c0 -51 31 -83 77 -83zM239 729c106 0 189 -71 189 -162v-62c0 -52 -18 -100 -63 -126
c54 -31 77 -73 77 -149v-54c0 -137 -93 -197 -203 -197s-203 60 -203 197v54c0 76 23 118 77 149c-45 26 -63 74 -63 126v62c0 91 83 162 189 162z" />
    <glyph glyph-name="nine" unicode="9" horiz-adv-x="465" 
d="M305 438v110c0 41 -29 77 -75 77s-75 -36 -75 -77v-110c0 -45 25 -77 75 -77c46 0 75 36 75 77zM418 548v-379c0 -108 -80 -190 -196 -190c-118 0 -178 83 -181 174c0 15 13 28 29 28h48c16 0 29 -13 29 -28c3 -42 25 -70 75 -70c46 0 83 21 83 86v137
c-25 -39 -72 -57 -116 -57c-90 0 -147 75 -147 174v125c0 93 85 182 189 182c105 0 187 -89 187 -182z" />
    <glyph glyph-name="colon" unicode=":" horiz-adv-x="261" 
d="M196 83v-55c0 -15 -13 -28 -29 -28h-74c-16 0 -29 13 -29 28v55c0 15 13 28 29 28h74c16 0 29 -13 29 -28zM196 431v-55c0 -15 -13 -28 -29 -28h-74c-16 0 -29 13 -29 28v55c0 15 13 28 29 28h74c16 0 29 -13 29 -28z" />
    <glyph glyph-name="semicolon" unicode=";" horiz-adv-x="261" 
d="M110 -111h-13c-8 0 -15 9 -15 19v12c0 10 7 19 15 19h13c17 0 34 15 34 39c0 16 -8 22 -18 22h-35c-15 0 -27 12 -27 27v57c0 15 12 27 27 27h79c14 0 26 -12 26 -27v-84c0 -78 -45 -111 -86 -111zM196 431v-55c0 -15 -13 -28 -29 -28h-74c-16 0 -29 13 -29 28v55
c0 15 13 28 29 28h74c16 0 29 -13 29 -28z" />
    <glyph glyph-name="less" unicode="&#x3c;" 
d="M415 417l-204 -149l204 -149c13 -9 19 -15 19 -30v-69c0 -12 -6 -20 -17 -20c-5 0 -11 1 -17 5l-277 199c-10 7 -18 13 -18 30v68c0 17 8 23 18 30l277 199c6 4 12 5 17 5c11 0 17 -8 17 -20v-69c0 -15 -6 -21 -19 -30z" />
    <glyph glyph-name="equal" unicode="=" 
d="M93 212h354c15 0 28 -13 28 -29v-40c0 -16 -13 -29 -28 -29h-354c-15 0 -28 13 -28 29v40c0 16 13 29 28 29zM93 423h354c15 0 28 -13 28 -29v-41c0 -16 -13 -29 -28 -29h-354c-15 0 -28 13 -28 29v41c0 16 13 29 28 29z" />
    <glyph glyph-name="greater" unicode="&#x3e;" 
d="M329 268l-205 149c-13 9 -19 15 -19 30v69c0 12 6 20 17 20c5 0 11 -1 17 -5l277 -199c10 -7 18 -13 18 -30v-68c0 -17 -8 -23 -18 -30l-277 -199c-6 -4 -12 -5 -17 -5c-11 0 -17 8 -17 20v69c0 15 6 21 19 30z" />
    <glyph glyph-name="question" unicode="?" horiz-adv-x="466" 
d="M153 536v-12c0 -15 -13 -28 -29 -28h-61c-16 0 -30 13 -30 28v16c0 115 81 191 198 191c112 0 201 -65 201 -191c0 -38 -8 -78 -29 -103l-102 -119c-19 -23 -27 -43 -27 -74v-21c0 -15 -11 -28 -27 -28h-64c-16 0 -29 13 -29 28v35c0 33 3 66 26 92l111 125
c9 11 20 25 20 59c0 55 -18 91 -79 91s-79 -38 -79 -89zM276 83v-55c0 -15 -11 -28 -27 -28h-68c-16 0 -29 13 -29 28v55c0 15 13 28 29 28h68c16 0 27 -13 27 -28z" />
    <glyph glyph-name="at" unicode="@" horiz-adv-x="767" 
d="M567 480l-39 -208c-1 -8 -2 -15 -2 -22c0 -16 5 -27 23 -27c54 0 106 78 106 167c0 140 -110 236 -261 236c-145 0 -278 -128 -278 -298c0 -183 131 -285 263 -285c73 0 109 19 140 35c9 5 17 10 23 10c10 0 14 -8 20 -16c16 -24 17 -36 17 -41c0 -26 -107 -63 -202 -63
c-209 0 -339 160 -339 363c0 169 132 369 356 369c185 0 334 -118 334 -301c0 -177 -102 -259 -221 -259c-24 0 -53 13 -61 48c-26 -36 -74 -46 -108 -46c-96 0 -126 83 -126 148c0 144 88 233 188 233c51 0 78 -18 92 -44l3 13c5 19 12 27 27 27h24c11 0 23 -6 23 -22
c0 -1 -1 -11 -2 -17zM454 376c0 45 -16 65 -69 65c-51 0 -96 -53 -96 -143c0 -53 21 -73 64 -73c48 0 83 45 98 114c2 12 3 28 3 37z" />
    <glyph glyph-name="A" unicode="A" horiz-adv-x="525" 
d="M335 252l-73 332l-73 -332h146zM195 709h134c12 0 21 -8 23 -18l151 -653c2 -8 3 -16 3 -17c0 -11 -9 -21 -22 -21h-74c-12 0 -19 10 -22 22l-30 126h-192l-30 -126c-3 -12 -10 -22 -22 -22h-74c-13 0 -22 10 -22 21c0 1 1 9 3 17l151 653c2 10 11 18 23 18z" />
    <glyph glyph-name="B" unicode="B" horiz-adv-x="505" 
d="M339 0h-255c-16 0 -29 13 -29 28v653c0 15 13 28 29 28h235c75 0 127 -65 127 -130v-93c0 -51 -22 -93 -73 -111c73 -13 95 -74 95 -128v-116c0 -65 -50 -131 -129 -131zM175 320v-219h99c40 0 66 26 66 66v87c0 40 -26 66 -66 66h-99zM334 483v59c0 39 -26 65 -66 65
h-93v-190h93c40 0 66 26 66 66z" />
    <glyph glyph-name="C" unicode="C" horiz-adv-x="493" 
d="M336 519v17c0 52 -33 89 -84 89c-50 0 -84 -38 -84 -89v-361c0 -52 33 -89 84 -89c50 0 84 38 84 89v17c0 15 13 28 29 28h64c16 0 29 -13 29 -28v-17c0 -125 -91 -195 -206 -195s-206 70 -206 195v361c0 125 91 195 206 195s206 -70 206 -195v-17c0 -15 -13 -28 -29 -28
h-64c-16 0 -29 13 -29 28z" />
    <glyph glyph-name="D" unicode="D" horiz-adv-x="509" 
d="M336 172v364c0 46 -25 71 -65 71h-94v-505h94c40 0 65 24 65 70zM460 579v-449c0 -70 -67 -130 -138 -130h-239c-16 0 -29 13 -29 28v653c0 15 13 28 29 28h239c71 0 138 -60 138 -130z" />
    <glyph glyph-name="E" unicode="E" horiz-adv-x="458" 
d="M397 0h-313c-16 0 -29 13 -29 28v653c0 15 13 28 29 28h308c15 0 28 -13 28 -29v-48c0 -16 -13 -29 -28 -29h-214v-177h184c15 0 28 -13 28 -29v-47c0 -16 -13 -29 -28 -29h-184v-215h219c15 0 28 -13 28 -29v-48c0 -16 -13 -29 -28 -29z" />
    <glyph glyph-name="F" unicode="F" horiz-adv-x="444" 
d="M178 321v-292c0 -16 -13 -29 -28 -29h-66c-16 0 -29 13 -29 28v653c0 15 13 28 29 28h308c15 0 28 -13 28 -29v-48c0 -16 -13 -29 -28 -29h-214v-177h184c15 0 28 -13 28 -29v-47c0 -16 -13 -29 -28 -29h-184z" />
    <glyph glyph-name="G" unicode="G" horiz-adv-x="510" 
d="M276 413h155c15 0 28 -13 28 -29v-355c0 -16 -13 -29 -28 -29h-67c-15 0 -28 13 -28 29v14c-31 -44 -79 -63 -128 -63c-83 0 -162 55 -162 195v361c0 125 91 195 206 195s206 -70 206 -195v-17c0 -15 -13 -28 -29 -28h-64c-16 0 -29 13 -29 28v17c0 52 -33 89 -84 89
s-84 -37 -84 -89v-361c0 -52 33 -89 84 -89s84 37 84 89v133h-60c-15 0 -28 13 -28 29v47c0 16 13 29 28 29z" />
    <glyph glyph-name="H" unicode="H" horiz-adv-x="525" 
d="M178 421h168v260c0 15 13 28 29 28h65c16 0 29 -13 29 -28v-653c0 -15 -13 -28 -29 -28h-65c-16 0 -29 13 -29 28v288h-168v-288c0 -15 -13 -28 -29 -28h-65c-16 0 -29 13 -29 28v653c0 15 13 28 29 28h65c16 0 29 -13 29 -28v-260z" />
    <glyph glyph-name="I" unicode="I" horiz-adv-x="234" 
d="M55 28v653c0 15 13 28 29 28h65c16 0 29 -13 29 -28v-653c0 -15 -13 -28 -29 -28h-65c-16 0 -29 13 -29 28z" />
    <glyph glyph-name="J" unicode="J" horiz-adv-x="469" 
d="M17 175v32c0 15 13 28 29 28h65c16 0 29 -13 29 -28v-32c0 -52 25 -89 77 -89s78 37 78 89v506c0 15 13 28 29 28h64c16 0 29 -13 29 -28v-506c0 -123 -85 -195 -200 -195c-114 0 -200 73 -200 195z" />
    <glyph glyph-name="K" unicode="K" horiz-adv-x="491" 
d="M448 671l-151 -283l177 -349c3 -6 3 -11 3 -16c0 -14 -11 -23 -29 -23h-74c-15 0 -27 15 -34 29l-162 316v-317c0 -15 -13 -28 -29 -28h-65c-16 0 -29 13 -29 28v653c0 15 13 28 29 28h65c16 0 29 -13 29 -28v-265l147 265c8 15 15 28 31 28h68c15 0 30 -2 30 -17
c0 -5 -2 -13 -6 -21z" />
    <glyph glyph-name="L" unicode="L" horiz-adv-x="416" 
d="M389 78v-50c0 -15 -13 -28 -29 -28h-280c-16 0 -29 13 -29 28v653c0 15 13 28 29 28h65c16 0 29 -13 29 -28v-575h186c16 0 29 -13 29 -28z" />
    <glyph glyph-name="M" unicode="M" horiz-adv-x="683" 
d="M359 0h-36c-16 0 -26 13 -29 28l-122 536v-536c0 -15 -13 -28 -29 -28h-54c-16 0 -29 13 -29 28v653c0 15 13 28 29 28h128c16 0 26 -13 29 -28l95 -432l95 432c3 15 13 28 29 28h128c16 0 29 -13 29 -28v-653c0 -15 -13 -28 -29 -28h-54c-16 0 -29 13 -29 28v536
l-122 -536c-3 -15 -13 -28 -29 -28z" />
    <glyph glyph-name="N" unicode="N" horiz-adv-x="562" 
d="M388 238v442c0 15 13 28 29 28h65c16 0 29 -13 29 -28v-652c0 -15 -13 -28 -29 -28h-82c-20 0 -26 14 -32 28l-195 443v-443c0 -15 -13 -28 -29 -28h-65c-16 0 -29 13 -29 28v653c0 15 13 28 29 28h82c20 0 26 -14 32 -28z" />
    <glyph glyph-name="O" unicode="O" horiz-adv-x="505" 
d="M336 175v361c0 52 -33 89 -84 89s-84 -37 -84 -89v-361c0 -52 33 -89 84 -89s84 37 84 89zM458 536v-361c0 -125 -91 -195 -206 -195s-206 70 -206 195v361c0 125 91 195 206 195s206 -70 206 -195z" />
    <glyph glyph-name="P" unicode="P" horiz-adv-x="487" 
d="M330 426v115c0 51 -22 66 -62 66h-91v-246h91c40 0 62 14 62 65zM177 259v-231c0 -15 -13 -28 -29 -28h-65c-16 0 -29 13 -29 28v653c0 15 13 28 29 28h241c74 0 129 -57 129 -130v-204c0 -68 -46 -116 -113 -116h-163z" />
    <glyph glyph-name="Q" unicode="Q" horiz-adv-x="524" 
d="M336 172v364c0 52 -33 89 -84 89s-84 -37 -84 -89v-364c0 -52 33 -89 84 -89s84 37 84 89zM439 83h62c11 0 18 -6 18 -16c0 -3 -1 -6 -3 -11l-25 -50c-6 -14 -23 -26 -38 -26h-219c-106 0 -188 76 -188 194v362c0 125 91 195 206 195s206 -70 206 -195v-364
c0 -34 -7 -64 -19 -89z" />
    <glyph glyph-name="R" unicode="R" horiz-adv-x="510" 
d="M342 472v70c0 39 -26 65 -66 65h-98v-201h98c40 0 66 26 66 66zM276 304h-98v-276c0 -15 -13 -28 -29 -28h-65c-16 0 -29 13 -29 28v653c0 15 13 28 29 28h244c77 0 127 -61 127 -130v-100c0 -64 -21 -115 -86 -122c80 -8 99 -72 99 -139v-190c0 -15 -13 -28 -29 -28h-65
c-16 0 -29 13 -29 28v210c0 40 -29 66 -69 66z" />
    <glyph glyph-name="S" unicode="S" horiz-adv-x="489" 
d="M161 536v-10c0 -40 21 -54 71 -86l130 -84c76 -49 89 -88 89 -181c0 -126 -85 -195 -208 -195c-118 0 -206 67 -206 195v41c0 15 13 28 29 28h64c16 0 29 -13 29 -28v-41c0 -51 34 -89 84 -89c55 0 84 34 84 89v15c0 41 -22 55 -57 78l-158 103c-61 40 -75 102 -75 159
c0 126 82 201 208 201c119 0 206 -66 206 -195v-22c0 -15 -13 -28 -29 -28h-64c-16 0 -29 13 -29 28v22c0 51 -29 89 -84 89s-84 -34 -84 -89z" />
    <glyph glyph-name="T" unicode="T" horiz-adv-x="460" 
d="M54 709h351c15 0 28 -13 28 -29v-47c0 -16 -13 -29 -28 -29h-114v-576c0 -15 -13 -28 -29 -28h-65c-16 0 -29 13 -29 28v576h-114c-15 0 -28 13 -28 29v47c0 16 13 29 28 29z" />
    <glyph glyph-name="U" unicode="U" horiz-adv-x="514" 
d="M340 175v506c0 15 13 28 29 28h64c16 0 29 -13 29 -28v-506c0 -125 -91 -195 -206 -195s-206 70 -206 195v506c0 15 13 28 29 28h64c16 0 29 -13 29 -28v-506c0 -52 33 -89 84 -89s84 37 84 89z" />
    <glyph glyph-name="V" unicode="V" horiz-adv-x="497" 
d="M248 90l108 590c3 16 18 29 34 29h64c14 0 25 -10 25 -24c0 -1 -1 -7 -2 -12l-122 -652c-2 -12 -15 -21 -28 -21h-158c-13 0 -26 9 -28 21l-122 652c-1 5 -2 11 -2 12c0 14 11 24 25 24h64c16 0 31 -13 34 -29z" />
    <glyph glyph-name="W" unicode="W" horiz-adv-x="809" 
d="M782 665l-110 -637c-3 -15 -13 -28 -29 -28h-113c-16 0 -26 13 -29 28l-97 552l-97 -552c-3 -15 -13 -28 -29 -28h-113c-16 0 -26 13 -29 28l-110 637c-2 10 -3 19 -3 21c0 13 10 23 23 23h59c16 0 30 -13 33 -29l89 -534l86 535c2 15 13 28 29 28h124
c16 0 27 -13 29 -28l86 -535l89 534c3 16 17 29 33 29h59c13 0 23 -10 23 -23c0 -2 -1 -11 -3 -21z" />
    <glyph glyph-name="X" unicode="X" horiz-adv-x="563" 
d="M424 709h67c14 0 23 -11 23 -23c0 -3 -1 -8 -3 -12l-139 -306l170 -333c3 -5 3 -8 3 -12c0 -12 -10 -23 -23 -23h-75c-17 0 -25 6 -38 31l-128 255l-128 -255c-13 -25 -21 -31 -38 -31h-75c-13 0 -23 11 -23 23c0 4 0 7 3 12l170 333l-139 306c-2 4 -3 9 -3 12
c0 12 9 23 23 23h67c17 0 22 -5 35 -31l108 -218l108 218c13 26 18 31 35 31z" />
    <glyph glyph-name="Y" unicode="Y" horiz-adv-x="509" 
d="M221 0c-16 0 -29 13 -29 28v300l-177 350c-2 4 -2 8 -2 10c0 12 8 21 22 21h64c16 0 23 -5 36 -31l119 -230l119 230c13 26 20 31 36 31h64c14 0 22 -9 22 -21c0 -2 0 -6 -2 -10l-177 -350v-300c0 -15 -13 -28 -29 -28h-66z" />
    <glyph glyph-name="Z" unicode="Z" horiz-adv-x="514" 
d="M41 29v52c0 40 5 49 15 65l281 452h-246c-15 0 -28 13 -28 29v53c0 16 13 29 28 29h362c15 0 28 -13 28 -29v-52c0 -19 0 -33 -8 -46l-292 -471h273c15 0 28 -13 28 -29v-53c0 -16 -13 -29 -28 -29h-385c-15 0 -28 13 -28 29z" />
    <glyph glyph-name="bracketleft" unicode="[" horiz-adv-x="300" 
d="M162 597v-679c0 -34 10 -44 44 -44h24c15 0 28 -13 28 -29v-32c0 -16 -13 -29 -28 -29h-38c-83 0 -124 45 -124 116v715c0 71 41 116 124 116h38c15 0 28 -13 28 -29v-32c0 -16 -13 -29 -28 -29h-24c-34 0 -44 -10 -44 -44z" />
    <glyph glyph-name="backslash" unicode="\" horiz-adv-x="409" 
d="M20 692c0 9 6 17 17 17h38c15 0 24 -1 33 -26l277 -724c2 -4 3 -8 3 -11c0 -10 -6 -18 -18 -18h-38c-15 0 -23 1 -33 27l-277 724c-1 4 -2 8 -2 11z" />
    <glyph glyph-name="bracketright" unicode="]" horiz-adv-x="300" 
d="M137 -82v679c0 34 -10 44 -44 44h-24c-15 0 -28 13 -28 29v32c0 16 13 29 28 29h38c83 0 124 -45 124 -116v-715c0 -71 -41 -116 -124 -116h-38c-15 0 -28 13 -28 29v32c0 16 13 29 28 29h24c34 0 44 10 44 44z" />
    <glyph glyph-name="asciicircum" unicode="^" 
d="M270 607l-115 -205c-5 -9 -14 -14 -24 -14c-4 0 -8 2 -12 4l-39 21c-9 5 -14 14 -14 24c0 5 2 9 4 13l149 265c5 9 14 14 23 14h56c9 0 18 -5 23 -14l149 -265c2 -4 4 -8 4 -13c0 -10 -5 -19 -14 -24l-39 -21c-4 -2 -8 -4 -12 -4c-10 0 -19 5 -24 14z" />
    <glyph glyph-name="underscore" unicode="_" horiz-adv-x="536" 
d="M56 -85h423c10 0 18 -8 18 -18v-36c0 -10 -8 -18 -18 -18h-423c-10 0 -18 8 -18 18v36c0 10 8 18 18 18z" />
    <glyph glyph-name="grave" unicode="`" horiz-adv-x="288" 
d="M82 631l-64 91c-2 3 -3 7 -3 9c0 10 11 19 22 19h66c15 0 29 -13 36 -28l35 -76c3 -5 4 -10 4 -15c0 -12 -9 -21 -24 -21h-36c-19 0 -24 5 -36 21z" />
    <glyph glyph-name="a" unicode="a" horiz-adv-x="456" 
d="M170 -11c-61 0 -144 35 -144 143c0 83 38 128 98 153l122 50c38 16 51 27 51 56c0 36 -26 61 -70 61c-41 0 -69 -26 -69 -65v-9c0 -15 -13 -28 -28 -28h-53c-16 0 -28 13 -28 28v9c0 94 75 165 184 165c119 0 176 -78 176 -174v-350c0 -15 -13 -28 -29 -28h-54
c-16 0 -29 13 -29 28v22c-28 -40 -75 -61 -127 -61zM297 157v104l-114 -54c-32 -15 -38 -41 -38 -60c0 -34 10 -68 74 -68c45 0 78 37 78 78z" />
    <glyph glyph-name="b" unicode="b" horiz-adv-x="461" 
d="M419 414v-283c0 -84 -58 -148 -132 -148c-58 0 -104 31 -124 77v-32c0 -15 -13 -28 -29 -28h-55c-16 0 -29 13 -29 28v653c0 15 13 28 29 28h55c16 0 29 -13 29 -28v-206c20 46 66 77 124 77c71 0 132 -62 132 -138zM306 163v199c0 47 -26 80 -71 80
c-44 0 -72 -39 -72 -80v-199c0 -41 28 -80 72 -80c45 0 71 32 71 80z" />
    <glyph glyph-name="c" unicode="c" horiz-adv-x="438" 
d="M406 380c0 -15 -13 -28 -29 -28h-55c-16 0 -29 13 -29 28c0 40 -26 72 -72 72c-43 0 -72 -34 -72 -76v-217c0 -42 29 -76 72 -76c46 0 72 35 72 76v8c0 15 13 28 29 28h55c16 0 29 -13 29 -28v-8c0 -98 -75 -176 -185 -176c-109 0 -185 78 -185 176v217
c0 98 76 176 185 176c110 0 185 -76 185 -172z" />
    <glyph glyph-name="d" unicode="d" horiz-adv-x="462" 
d="M41 131v283c0 76 67 138 138 138c58 0 98 -31 118 -77v206c0 15 13 28 29 28h55c16 0 29 -13 29 -28v-653c0 -15 -13 -28 -29 -28h-55c-16 0 -29 13 -29 28v32c-20 -46 -60 -77 -118 -77c-74 0 -138 64 -138 148zM154 362v-199c0 -48 26 -80 71 -80c44 0 72 39 72 80v199
c0 41 -28 80 -72 80c-45 0 -71 -33 -71 -80z" />
    <glyph glyph-name="e" unicode="e" horiz-adv-x="448" 
d="M382 241h-233v-82c0 -42 31 -76 74 -76c44 0 75 34 75 76v3c0 15 13 28 29 28h55c16 0 29 -13 29 -28v-3c0 -98 -78 -176 -188 -176c-109 0 -187 78 -187 176v217c0 98 78 176 187 176c110 0 188 -78 188 -176v-107c0 -15 -13 -28 -29 -28zM298 330v46
c0 42 -31 76 -75 76c-43 0 -74 -34 -74 -76v-46h149z" />
    <glyph glyph-name="f" unicode="f" horiz-adv-x="312" 
d="M265 408h-102v-380c0 -15 -13 -28 -29 -28h-55c-16 0 -29 13 -29 28v553c0 72 61 129 136 129h79c15 0 28 -13 28 -29v-44c0 -16 -13 -29 -28 -29h-46c-51 0 -56 -26 -56 -59v-39h102c15 0 28 -13 28 -29v-44c0 -16 -13 -29 -28 -29z" />
    <glyph glyph-name="g" unicode="g" horiz-adv-x="462" 
d="M161 -60c0 -47 26 -80 70 -80c48 0 71 39 71 80v137c-20 -46 -60 -77 -118 -77c-74 0 -138 64 -138 148v266c0 76 67 138 138 138c58 0 98 -31 118 -77v32c0 15 13 28 29 28h55c16 0 29 -13 29 -28v-559c0 -103 -80 -188 -183 -188c-99 0 -181 79 -183 180
c0 15 13 28 29 28h53c17 0 30 -13 30 -28zM159 362v-182c0 -48 26 -80 71 -80c44 0 72 39 72 80v182c0 41 -28 80 -72 80c-45 0 -71 -33 -71 -80z" />
    <glyph glyph-name="h" unicode="h" horiz-adv-x="465" 
d="M163 681v-206c20 46 66 77 124 77c77 0 132 -71 132 -148v-376c0 -15 -13 -28 -29 -28h-55c-16 0 -29 13 -29 28v344c0 48 -26 80 -71 80c-44 0 -72 -39 -72 -80v-344c0 -15 -13 -28 -29 -28h-55c-16 0 -29 13 -29 28v653c0 15 13 28 29 28h55c16 0 29 -13 29 -28z" />
    <glyph glyph-name="i" unicode="i" horiz-adv-x="214" 
d="M50 28v479c0 15 13 28 29 28h55c16 0 29 -13 29 -28v-479c0 -15 -13 -28 -29 -28h-55c-16 0 -29 13 -29 28zM163 681v-42c0 -15 -13 -28 -29 -28h-55c-16 0 -29 13 -29 28v42c0 15 13 28 29 28h55c16 0 29 -13 29 -28z" />
    <glyph glyph-name="j" unicode="j" horiz-adv-x="228" 
d="M177 681v-42c0 -15 -13 -28 -29 -28h-55c-16 0 -29 13 -29 28v42c0 15 13 28 29 28h55c16 0 29 -13 29 -28zM-6 -82h14c51 0 56 26 56 59v530c0 15 13 28 29 28h55c16 0 29 -13 29 -28v-562c0 -72 -61 -129 -136 -129h-47c-15 0 -28 13 -28 29v44c0 16 13 29 28 29z" />
    <glyph glyph-name="k" unicode="k" horiz-adv-x="458" 
d="M50 28v653c0 15 13 28 29 28h55c16 0 29 -13 29 -28v-359l135 177c11 14 17 22 33 22h67c15 0 27 -7 27 -19c0 -5 -2 -13 -6 -19l-145 -190l162 -252c4 -6 4 -12 4 -16c0 -15 -12 -25 -30 -25h-62c-16 0 -27 14 -35 28l-150 238v-238c0 -15 -13 -28 -29 -28h-55
c-16 0 -29 13 -29 28z" />
    <glyph glyph-name="l" unicode="l" horiz-adv-x="214" 
d="M50 28v653c0 15 13 28 29 28h55c16 0 29 -13 29 -28v-653c0 -15 -13 -28 -29 -28h-55c-16 0 -29 13 -29 28z" />
    <glyph glyph-name="m" unicode="m" horiz-adv-x="716" 
d="M539 552c77 0 132 -71 132 -148v-376c0 -15 -13 -28 -29 -28h-55c-16 0 -29 13 -29 28v344c0 48 -26 80 -71 80c-44 0 -68 -39 -68 -80v-344c0 -15 -13 -28 -29 -28h-55c-16 0 -29 13 -29 28v344c0 48 -26 80 -71 80c-44 0 -72 -39 -72 -80v-344c0 -15 -13 -28 -29 -28
h-55c-16 0 -29 13 -29 28v479c0 15 13 28 29 28h55c16 0 29 -13 29 -28v-32c20 46 66 77 124 77c57 0 102 -38 122 -77c20 45 72 77 130 77z" />
    <glyph glyph-name="n" unicode="n" horiz-adv-x="464" 
d="M163 507v-32c20 46 66 77 124 77c77 0 132 -71 132 -148v-376c0 -15 -13 -28 -29 -28h-55c-16 0 -29 13 -29 28v344c0 48 -26 80 -71 80c-44 0 -72 -39 -72 -80v-344c0 -15 -13 -28 -29 -28h-55c-16 0 -29 13 -29 28v479c0 15 13 28 29 28h55c16 0 29 -13 29 -28z" />
    <glyph glyph-name="o" unicode="o" horiz-adv-x="448" 
d="M36 159v217c0 98 78 176 187 176c110 0 188 -78 188 -176v-217c0 -98 -78 -176 -188 -176c-109 0 -187 78 -187 176zM298 159v217c0 42 -31 76 -75 76c-43 0 -74 -34 -74 -76v-217c0 -42 31 -76 74 -76c44 0 75 34 75 76z" />
    <glyph glyph-name="p" unicode="p" horiz-adv-x="458" 
d="M415 404v-283c0 -76 -61 -138 -132 -138c-58 0 -104 31 -124 77v-216c0 -15 -13 -28 -29 -28h-55c-16 0 -29 13 -29 28v663c0 15 13 28 29 28h55c16 0 29 -13 29 -28v-32c20 46 66 77 124 77c74 0 132 -64 132 -148zM302 173v199c0 48 -26 80 -71 80
c-44 0 -72 -39 -72 -80v-199c0 -41 28 -80 72 -80c45 0 71 33 71 80z" />
    <glyph glyph-name="q" unicode="q" horiz-adv-x="458" 
d="M42 121v283c0 84 58 148 132 148c58 0 104 -31 124 -77v32c0 15 13 28 29 28h55c16 0 29 -13 29 -28v-663c0 -15 -13 -28 -29 -28h-55c-16 0 -29 13 -29 28v216c-20 -46 -66 -77 -124 -77c-71 0 -132 62 -132 138zM155 372v-199c0 -47 26 -80 71 -80c44 0 72 39 72 80
v199c0 41 -28 80 -72 80c-45 0 -71 -32 -71 -80z" />
    <glyph glyph-name="r" unicode="r" horiz-adv-x="414" 
d="M283 370v14c0 39 -11 68 -58 68c-34 0 -62 -29 -62 -68v-356c0 -15 -13 -28 -29 -28h-55c-16 0 -29 13 -29 28v479c0 15 13 28 29 28h55c16 0 29 -13 29 -28v-24c22 34 67 69 122 69c59 0 111 -49 111 -119v-63c0 -15 -13 -28 -29 -28h-55c-16 0 -29 13 -29 28z" />
    <glyph glyph-name="s" unicode="s" horiz-adv-x="441" 
d="M216 452c-33 0 -69 -15 -69 -53c0 -20 5 -34 31 -45l147 -67c57 -26 84 -65 84 -139c0 -93 -80 -165 -187 -165s-190 82 -190 173c0 15 13 28 29 28h52c16 0 29 -13 29 -28c0 -44 32 -73 80 -73c54 0 76 34 76 64c0 17 -7 36 -36 50l-152 72c-48 23 -72 69 -72 122
c0 99 73 161 177 161c103 0 183 -63 183 -157v-9c0 -15 -13 -28 -29 -28h-52c-16 0 -29 13 -29 28c0 54 -37 66 -72 66z" />
    <glyph glyph-name="t" unicode="t" horiz-adv-x="332" 
d="M163 433v-272c0 -33 5 -59 56 -59h45c15 0 28 -13 28 -29v-44c0 -16 -13 -29 -28 -29h-78c-75 0 -136 57 -136 129v552c0 15 13 28 29 28h55c16 0 29 -13 29 -28v-146h102c15 0 28 -13 28 -29v-44c0 -16 -13 -29 -28 -29h-102z" />
    <glyph glyph-name="u" unicode="u" horiz-adv-x="464" 
d="M300 28v32c-20 -46 -66 -77 -124 -77c-77 0 -132 71 -132 148v376c0 15 13 28 29 28h55c16 0 29 -13 29 -28v-344c0 -48 26 -80 71 -80c44 0 72 39 72 80v344c0 15 13 28 29 28h55c16 0 29 -13 29 -28v-479c0 -15 -13 -28 -29 -28h-55c-16 0 -29 13 -29 28z" />
    <glyph glyph-name="v" unicode="v" horiz-adv-x="437" 
d="M179 0c-15 0 -29 12 -34 28l-138 479c-1 3 -1 7 -1 9c0 11 10 19 22 19h63c15 0 23 -6 27 -21l100 -379l100 379c4 15 12 21 27 21h63c12 0 22 -8 22 -19c0 -2 0 -6 -1 -9l-138 -479c-5 -16 -19 -28 -34 -28h-78z" />
    <glyph glyph-name="w" unicode="w" horiz-adv-x="723" 
d="M414 535c16 0 25 -12 28 -28l74 -367l81 367c4 16 12 28 26 28h60c13 0 26 -9 26 -22c0 -2 0 -3 -1 -6l-108 -479c-4 -16 -12 -28 -28 -28h-103c-16 0 -25 12 -28 28l-80 380l-80 -380c-3 -16 -12 -28 -28 -28h-103c-16 0 -24 12 -28 28l-108 479c-1 3 -1 4 -1 6
c0 13 13 22 26 22h60c14 0 22 -12 26 -28l81 -367l74 367c3 16 12 28 28 28h106z" />
    <glyph glyph-name="x" unicode="x" horiz-adv-x="434" 
d="M302 21l-85 176l-85 -176c-7 -15 -12 -21 -27 -21h-69c-12 0 -23 11 -23 23c0 3 1 6 2 8l122 253l-107 220c-1 2 -2 5 -2 8c0 13 10 23 22 23h66c15 0 21 -7 27 -20l74 -152l74 152c6 13 12 20 27 20h66c12 0 22 -10 22 -23c0 -3 -1 -6 -2 -8l-107 -220l122 -253
c1 -2 2 -5 2 -8c0 -12 -11 -23 -23 -23h-69c-15 0 -20 6 -27 21z" />
    <glyph glyph-name="y" unicode="y" horiz-adv-x="452" 
d="M233 123l97 391c5 15 12 21 26 21h72c12 0 20 -9 20 -20c0 -2 -1 -5 -2 -9l-159 -571c-27 -98 -74 -119 -143 -119h-54c-15 0 -28 13 -28 29v44c0 16 13 29 28 29h46c31 0 41 10 41 27c0 8 -3 19 -6 29l-158 532c-1 4 -2 7 -2 9c0 11 8 20 20 20h72c14 0 22 -6 26 -21z
" />
    <glyph glyph-name="z" unicode="z" horiz-adv-x="432" 
d="M396 506v-51c0 -31 0 -38 -11 -52l-225 -298h215c15 0 29 -13 29 -29v-47c0 -16 -13 -29 -28 -29h-312c-15 0 -32 13 -32 29v48c0 31 0 39 10 52l231 301h-194c-15 0 -28 13 -28 29v48c0 16 11 28 26 28h291c15 0 28 -13 28 -29z" />
    <glyph glyph-name="braceleft" unicode="{" horiz-adv-x="393" 
d="M259 577v-183c0 -73 -16 -128 -84 -137c68 -9 84 -64 84 -137v-182c0 -33 16 -61 55 -61h8c16 0 29 -13 29 -29v-32c0 -16 -13 -29 -29 -29h-21c-78 0 -138 59 -138 132v219c0 56 -25 57 -56 57h-21c-15 0 -28 13 -28 29v66c0 16 13 29 28 29h21c31 0 56 1 56 57v220
c0 73 60 132 138 132h21c16 0 29 -13 29 -29v-32c0 -16 -13 -29 -29 -29h-8c-39 0 -55 -28 -55 -61z" />
    <glyph glyph-name="bar" unicode="|" horiz-adv-x="189" 
d="M50 -42v723c0 16 12 28 27 28h34c15 0 27 -12 27 -28v-723c0 -16 -12 -28 -27 -28h-34c-15 0 -27 12 -27 28z" />
    <glyph glyph-name="braceright" unicode="}" horiz-adv-x="393" 
d="M133 394v183c0 33 -16 61 -55 61h-8c-16 0 -29 13 -29 29v32c0 16 13 29 29 29h21c78 0 138 -59 138 -132v-220c0 -56 25 -57 56 -57h21c15 0 28 -13 28 -29v-66c0 -16 -13 -29 -28 -29h-21c-31 0 -56 -1 -56 -57v-219c0 -73 -60 -132 -138 -132h-21c-16 0 -29 13 -29 29
v32c0 16 13 29 29 29h8c39 0 55 28 55 61v182c0 73 16 128 84 137c-68 9 -84 64 -84 137z" />
    <glyph glyph-name="asciitilde" unicode="~" 
d="M269 226c-16 9 -33 18 -58 18c-26 0 -52 -23 -62 -29c-3 -2 -7 -4 -10 -4c-7 0 -11 3 -38 48c-3 5 -4 9 -4 12c0 6 4 9 12 15c13 10 57 41 102 41c26 0 44 -11 60 -19c16 -9 33 -18 58 -18c26 0 52 23 62 29c3 2 7 4 10 4c7 0 11 -3 38 -48c3 -5 4 -9 4 -12
c0 -6 -4 -9 -12 -15c-13 -10 -57 -41 -102 -41c-26 0 -44 11 -60 19z" />
    <glyph glyph-name="Adieresis" unicode="&#xc4;" horiz-adv-x="525" 
d="M335 252l-73 332l-73 -332h146zM195 709h134c12 0 21 -8 23 -18l151 -653c2 -8 3 -16 3 -17c0 -11 -9 -21 -22 -21h-74c-12 0 -19 10 -22 22l-30 126h-192l-30 -126c-3 -12 -10 -22 -22 -22h-74c-13 0 -22 10 -22 21c0 1 1 9 3 17l151 653c2 10 11 18 23 18zM223 863v-55
c0 -15 -12 -28 -27 -28h-70c-15 0 -27 13 -27 28v55c0 15 12 28 27 28h70c15 0 27 -13 27 -28zM422 863v-55c0 -15 -12 -28 -27 -28h-70c-15 0 -27 13 -27 28v55c0 15 12 28 27 28h70c15 0 27 -13 27 -28z" />
    <glyph glyph-name="Aring" unicode="&#xc5;" horiz-adv-x="525" 
d="M380 772c0 -29 -11 -56 -29 -77c0 -2 0 -3 1 -4l151 -653c2 -8 3 -16 3 -17c0 -11 -9 -21 -22 -21h-74c-12 0 -19 10 -22 22l-30 126h-192l-30 -126c-3 -12 -10 -22 -22 -22h-74c-13 0 -22 10 -22 21c0 1 1 9 3 17l151 653c0 2 0 4 1 5c-17 21 -27 47 -27 76
c0 63 53 116 116 116c65 0 118 -53 118 -116zM334 252l-73 332l-73 -332h146zM325 772c0 31 -29 63 -63 63c-33 0 -61 -32 -61 -63c0 -28 22 -58 51 -63h20c29 5 53 35 53 63z" />
    <glyph glyph-name="Ccedilla" unicode="&#xc7;" horiz-adv-x="493" 
d="M369 -129c0 -51 -34 -98 -113 -98c-28 0 -57 15 -82 34c-6 4 -8 11 -8 16c0 4 0 8 3 12l10 14c3 5 9 9 15 9c3 0 8 -2 12 -5c19 -13 27 -23 49 -23c26 0 39 15 39 38c0 29 -18 36 -35 36s-19 -16 -33 -16c-2 0 -4 0 -7 1l-22 7c-8 2 -12 9 -12 17c0 1 0 4 1 6l18 62
c-92 17 -158 84 -158 191v364c0 125 91 195 206 195s206 -70 206 -195v-17c0 -15 -13 -28 -29 -28h-64c-16 0 -29 13 -29 28v17c0 52 -33 89 -84 89c-50 0 -84 -38 -84 -89v-364c0 -52 33 -89 84 -89c50 0 84 38 84 89v17c0 15 13 28 29 28h64c16 0 29 -13 29 -28v-17
c0 -121 -86 -190 -195 -195l-9 -29c16 6 20 7 37 7c31 0 78 -31 78 -84z" />
    <glyph glyph-name="Eacute" unicode="&#xc9;" horiz-adv-x="458" 
d="M397 0h-313c-16 0 -29 13 -29 28v653c0 15 13 28 29 28h308c15 0 28 -13 28 -29v-48c0 -16 -13 -29 -28 -29h-214v-177h184c15 0 28 -13 28 -29v-47c0 -16 -13 -29 -28 -29h-184v-215h219c15 0 28 -13 28 -29v-48c0 -16 -13 -29 -28 -29zM348 876l-64 -91
c-12 -16 -17 -21 -36 -21h-36c-15 0 -24 9 -24 21c0 5 1 10 4 15l35 76c7 15 21 28 36 28h66c11 0 22 -9 22 -19c0 -2 -1 -6 -3 -9z" />
    <glyph glyph-name="Ntilde" unicode="&#xd1;" horiz-adv-x="562" 
d="M388 238v442c0 15 13 28 29 28h65c16 0 29 -13 29 -28v-652c0 -15 -13 -28 -29 -28h-82c-20 0 -26 14 -32 28l-195 443v-443c0 -15 -13 -28 -29 -28h-65c-16 0 -29 13 -29 28v653c0 15 13 28 29 28h82c20 0 26 -14 32 -28zM292 785c-16 9 -33 18 -58 18
c-26 0 -50 -22 -60 -28c-3 -2 -7 -4 -10 -4c-7 0 -15 9 -42 54c-3 5 -4 9 -4 12c0 6 4 9 12 15c13 10 55 40 100 40c26 0 44 -11 60 -19c16 -9 33 -18 58 -18c26 0 51 24 61 30c3 2 7 4 10 4c7 0 15 -9 42 -54c3 -5 4 -9 4 -12c0 -6 -4 -9 -12 -15c-13 -10 -56 -42 -101 -42
c-26 0 -44 11 -60 19z" />
    <glyph glyph-name="Odieresis" unicode="&#xd6;" horiz-adv-x="505" 
d="M336 175v361c0 52 -33 89 -84 89s-84 -37 -84 -89v-361c0 -52 33 -89 84 -89s84 37 84 89zM458 536v-361c0 -125 -91 -195 -206 -195s-206 70 -206 195v361c0 125 91 195 206 195s206 -70 206 -195zM215 861v-55c0 -15 -12 -28 -27 -28h-70c-15 0 -27 13 -27 28v55
c0 15 12 28 27 28h70c15 0 27 -13 27 -28zM414 861v-55c0 -15 -12 -28 -27 -28h-70c-15 0 -27 13 -27 28v55c0 15 12 28 27 28h70c15 0 27 -13 27 -28z" />
    <glyph glyph-name="Udieresis" unicode="&#xdc;" horiz-adv-x="514" 
d="M340 175v506c0 15 13 28 29 28h64c16 0 29 -13 29 -28v-506c0 -125 -91 -195 -206 -195s-206 70 -206 195v506c0 15 13 28 29 28h64c16 0 29 -13 29 -28v-506c0 -52 33 -89 84 -89s84 37 84 89zM221 862v-55c0 -15 -12 -28 -27 -28h-70c-15 0 -27 13 -27 28v55
c0 15 12 28 27 28h70c15 0 27 -13 27 -28zM420 862v-55c0 -15 -12 -28 -27 -28h-70c-15 0 -27 13 -27 28v55c0 15 12 28 27 28h70c15 0 27 -13 27 -28z" />
    <glyph glyph-name="aacute" unicode="&#xe1;" horiz-adv-x="456" 
d="M170 -11c-61 0 -144 35 -144 143c0 83 38 128 98 153l122 50c38 16 51 27 51 56c0 36 -26 61 -70 61c-41 0 -69 -26 -69 -65v-9c0 -15 -13 -28 -28 -28h-53c-16 0 -28 13 -28 28v9c0 94 75 165 184 165c119 0 176 -78 176 -174v-350c0 -15 -13 -28 -29 -28h-54
c-16 0 -29 13 -29 28v22c-28 -40 -75 -61 -127 -61zM297 157v104l-114 -54c-32 -15 -38 -41 -38 -60c0 -34 10 -68 74 -68c45 0 78 37 78 78zM342 713l-64 -91c-12 -16 -17 -21 -36 -21h-36c-15 0 -24 9 -24 21c0 5 1 10 4 15l35 76c7 15 21 28 36 28h66c11 0 22 -9 22 -19
c0 -2 -1 -6 -3 -9z" />
    <glyph glyph-name="agrave" unicode="&#xe0;" horiz-adv-x="456" 
d="M170 -11c-61 0 -144 35 -144 143c0 83 38 128 98 153l122 50c38 16 51 27 51 56c0 36 -26 61 -70 61c-41 0 -69 -26 -69 -65v-9c0 -15 -13 -28 -28 -28h-53c-16 0 -28 13 -28 28v9c0 94 75 165 184 165c119 0 176 -78 176 -174v-350c0 -15 -13 -28 -29 -28h-54
c-16 0 -29 13 -29 28v22c-28 -40 -75 -61 -127 -61zM297 157v104l-114 -54c-32 -15 -38 -41 -38 -60c0 -34 10 -68 74 -68c45 0 78 37 78 78zM209 621l-64 91c-2 3 -3 7 -3 9c0 10 11 19 22 19h66c15 0 29 -13 36 -28l35 -76c3 -5 4 -10 4 -15c0 -12 -9 -21 -24 -21h-36
c-19 0 -24 5 -36 21z" />
    <glyph glyph-name="acircumflex" unicode="&#xe2;" horiz-adv-x="456" 
d="M170 -11c-61 0 -144 35 -144 143c0 83 38 128 98 153l122 50c38 16 51 27 51 56c0 36 -26 61 -70 61c-41 0 -69 -26 -69 -65v-9c0 -15 -13 -28 -28 -28h-53c-16 0 -28 13 -28 28v9c0 94 75 165 184 165c119 0 176 -78 176 -174v-350c0 -15 -13 -28 -29 -28h-54
c-16 0 -29 13 -29 28v22c-28 -40 -75 -61 -127 -61zM263 751c17 0 22 -11 30 -22l78 -116c2 -3 4 -8 4 -11c0 -5 -4 -10 -16 -10h-53c-9 0 -13 4 -20 12l-50 63l-50 -63c-7 -8 -11 -12 -20 -12h-53c-12 0 -16 5 -16 10c0 3 2 8 4 11l78 116c8 11 13 22 30 22h54zM297 157
v104l-114 -54c-32 -15 -38 -41 -38 -60c0 -34 10 -68 74 -68c45 0 78 37 78 78z" />
    <glyph glyph-name="adieresis" unicode="&#xe4;" horiz-adv-x="456" 
d="M170 -11c-61 0 -144 35 -144 143c0 83 38 128 98 153l122 50c38 16 51 27 51 56c0 36 -26 61 -70 61c-41 0 -69 -26 -69 -65v-9c0 -15 -13 -28 -28 -28h-53c-16 0 -28 13 -28 28v9c0 94 75 165 184 165c119 0 176 -78 176 -174v-350c0 -15 -13 -28 -29 -28h-54
c-16 0 -29 13 -29 28v22c-28 -40 -75 -61 -127 -61zM297 157v104l-114 -54c-32 -15 -38 -41 -38 -60c0 -34 10 -68 74 -68c45 0 78 37 78 78zM193 696v-55c0 -15 -12 -28 -27 -28h-70c-15 0 -27 13 -27 28v55c0 15 12 28 27 28h70c15 0 27 -13 27 -28zM392 696v-55
c0 -15 -12 -28 -27 -28h-70c-15 0 -27 13 -27 28v55c0 15 12 28 27 28h70c15 0 27 -13 27 -28z" />
    <glyph glyph-name="atilde" unicode="&#xe3;" horiz-adv-x="462" 
d="M170 -11c-61 0 -144 35 -144 143c0 83 38 128 98 153l122 50c38 16 51 27 51 56c0 36 -26 61 -70 61c-41 0 -69 -26 -69 -65v-9c0 -15 -13 -28 -28 -28h-53c-16 0 -28 13 -28 28v9c0 94 75 165 184 165c119 0 176 -78 176 -174v-350c0 -15 -13 -28 -29 -28h-54
c-16 0 -29 13 -29 28v22c-28 -40 -75 -61 -127 -61zM297 157v104l-114 -54c-32 -15 -38 -41 -38 -60c0 -34 10 -68 74 -68c45 0 78 37 78 78zM242 625c-16 9 -33 18 -58 18c-26 0 -50 -22 -60 -28c-3 -2 -7 -4 -10 -4c-7 0 -15 9 -42 54c-3 5 -4 9 -4 12c0 6 4 9 12 15
c13 10 55 40 100 40c26 0 44 -11 60 -19c16 -9 33 -18 58 -18c26 0 51 24 61 30c3 2 7 4 10 4c7 0 15 -9 42 -54c3 -5 4 -9 4 -12c0 -6 -4 -9 -12 -15c-13 -10 -56 -42 -101 -42c-26 0 -44 11 -60 19z" />
    <glyph glyph-name="aring" unicode="&#xe5;" horiz-adv-x="457" 
d="M170 -11c-61 0 -144 35 -144 143c0 83 38 128 98 153l122 50c38 16 51 27 51 56c0 36 -26 61 -70 61c-41 0 -69 -26 -69 -65v-9c0 -15 -13 -28 -28 -28h-53c-16 0 -28 13 -28 28v9c0 69 41 126 106 151c-18 21 -29 49 -29 79c0 63 53 117 116 117c65 0 118 -54 118 -117
c0 -33 -14 -63 -36 -85c57 -29 85 -87 85 -154v-350c0 -15 -13 -28 -29 -28h-54c-16 0 -29 13 -29 28v22c-28 -40 -75 -61 -127 -61zM297 157v104l-114 -54c-32 -15 -38 -41 -38 -60c0 -34 10 -68 74 -68c45 0 78 37 78 78zM305 617c0 31 -29 63 -63 63
c-33 0 -61 -32 -61 -63s28 -64 61 -64c34 0 63 33 63 64z" />
    <glyph glyph-name="ccedilla" unicode="&#xe7;" horiz-adv-x="438" 
d="M331 -129c0 -51 -34 -98 -113 -98c-28 0 -57 15 -82 34c-6 4 -8 11 -8 16c0 4 0 8 3 12l10 14c3 5 9 9 15 9c3 0 8 -2 12 -5c19 -13 27 -23 49 -23c26 0 39 15 39 38c0 29 -18 36 -35 36s-19 -16 -33 -16c-2 0 -4 0 -7 1l-22 7c-8 2 -12 9 -12 17c0 1 0 4 1 6l20 71
c-80 20 -132 87 -132 169v217c0 98 76 176 185 176c110 0 185 -76 185 -172c0 -15 -13 -28 -29 -28h-55c-16 0 -29 13 -29 28c0 40 -26 72 -72 72c-43 0 -72 -34 -72 -76v-217c0 -42 29 -76 72 -76c46 0 72 35 72 76v8c0 15 13 28 29 28h55c16 0 29 -13 29 -28v-8
c0 -96 -73 -173 -179 -176l-11 -35c16 6 20 7 37 7c31 0 78 -31 78 -84z" />
    <glyph glyph-name="eacute" unicode="&#xe9;" horiz-adv-x="448" 
d="M382 241h-233v-82c0 -42 31 -76 74 -76c44 0 75 34 75 76v3c0 15 13 28 29 28h55c16 0 29 -13 29 -28v-3c0 -98 -78 -176 -188 -176c-109 0 -187 78 -187 176v217c0 98 78 176 187 176c110 0 188 -78 188 -176v-107c0 -15 -13 -28 -29 -28zM298 330v46
c0 42 -31 76 -75 76c-43 0 -74 -34 -74 -76v-46h149zM339 709l-64 -91c-12 -16 -17 -21 -36 -21h-36c-15 0 -24 9 -24 21c0 5 1 10 4 15l35 76c7 15 21 28 36 28h66c11 0 22 -9 22 -19c0 -2 -1 -6 -3 -9z" />
    <glyph glyph-name="egrave" unicode="&#xe8;" horiz-adv-x="448" 
d="M382 241h-233v-82c0 -42 31 -76 74 -76c44 0 75 34 75 76v3c0 15 13 28 29 28h55c16 0 29 -13 29 -28v-3c0 -98 -78 -176 -188 -176c-109 0 -187 78 -187 176v217c0 98 78 176 187 176c110 0 188 -78 188 -176v-107c0 -15 -13 -28 -29 -28zM298 330v46
c0 42 -31 76 -75 76c-43 0 -74 -34 -74 -76v-46h149zM181 618l-64 91c-2 3 -3 7 -3 9c0 10 11 19 22 19h66c15 0 29 -13 36 -28l35 -76c3 -5 4 -10 4 -15c0 -12 -9 -21 -24 -21h-36c-19 0 -24 5 -36 21z" />
    <glyph glyph-name="ecircumflex" unicode="&#xea;" horiz-adv-x="448" 
d="M382 241h-233v-82c0 -42 31 -76 74 -76c44 0 75 34 75 76v3c0 15 13 28 29 28h55c16 0 29 -13 29 -28v-3c0 -98 -78 -176 -188 -176c-109 0 -187 78 -187 176v217c0 98 78 176 187 176c110 0 188 -78 188 -176v-107c0 -15 -13 -28 -29 -28zM250 751c17 0 22 -11 30 -22
l78 -116c2 -3 4 -8 4 -11c0 -5 -4 -10 -16 -10h-53c-9 0 -13 4 -20 12l-50 63l-50 -63c-7 -8 -11 -12 -20 -12h-53c-12 0 -16 5 -16 10c0 3 2 8 4 11l78 116c8 11 13 22 30 22h54zM298 330v46c0 42 -31 76 -75 76c-43 0 -74 -34 -74 -76v-46h149z" />
    <glyph glyph-name="edieresis" unicode="&#xeb;" horiz-adv-x="448" 
d="M382 241h-233v-82c0 -42 31 -76 74 -76c44 0 75 34 75 76v3c0 15 13 28 29 28h55c16 0 29 -13 29 -28v-3c0 -98 -78 -176 -188 -176c-109 0 -187 78 -187 176v217c0 98 78 176 187 176c110 0 188 -78 188 -176v-107c0 -15 -13 -28 -29 -28zM298 330v46
c0 42 -31 76 -75 76c-43 0 -74 -34 -74 -76v-46h149zM186 695v-55c0 -15 -12 -28 -27 -28h-70c-15 0 -27 13 -27 28v55c0 15 12 28 27 28h70c15 0 27 -13 27 -28zM385 695v-55c0 -15 -12 -28 -27 -28h-70c-15 0 -27 13 -27 28v55c0 15 12 28 27 28h70c15 0 27 -13 27 -28z
" />
    <glyph glyph-name="iacute" unicode="&#xed;" horiz-adv-x="280" 
d="M50 28v479c0 15 13 28 29 28h55c16 0 29 -13 29 -28v-479c0 -15 -13 -28 -29 -28h-55c-16 0 -29 13 -29 28zM226 710l-64 -91c-12 -16 -17 -21 -36 -21h-36c-15 0 -24 9 -24 21c0 5 1 10 4 15l35 76c7 15 21 28 36 28h66c11 0 22 -9 22 -19c0 -2 -1 -6 -3 -9z" />
    <glyph glyph-name="igrave" unicode="&#xec;" horiz-adv-x="272" 
d="M108 28v479c0 15 13 28 29 28h55c16 0 29 -13 29 -28v-479c0 -15 -13 -28 -29 -28h-55c-16 0 -29 13 -29 28zM117 618l-64 91c-2 3 -3 7 -3 9c0 10 11 19 22 19h66c15 0 29 -13 36 -28l35 -76c3 -5 4 -10 4 -15c0 -12 -9 -21 -24 -21h-36c-19 0 -24 5 -36 21z" />
    <glyph glyph-name="icircumflex" unicode="&#xee;" horiz-adv-x="379" 
d="M133 28v479c0 15 13 28 29 28h55c16 0 29 -13 29 -28v-479c0 -15 -13 -28 -29 -28h-55c-16 0 -29 13 -29 28zM216 751c17 0 22 -11 30 -22l78 -116c2 -3 4 -8 4 -11c0 -5 -4 -10 -16 -10h-53c-9 0 -13 4 -20 12l-50 63l-50 -63c-7 -8 -11 -12 -20 -12h-53
c-12 0 -16 5 -16 10c0 3 2 8 4 11l78 116c8 11 13 22 30 22h54z" />
    <glyph glyph-name="idieresis" unicode="&#xef;" horiz-adv-x="424" 
d="M174 695v-55c0 -15 -12 -28 -27 -28h-70c-15 0 -27 13 -27 28v55c0 15 12 28 27 28h70c15 0 27 -13 27 -28zM373 695v-55c0 -15 -12 -28 -27 -28h-70c-15 0 -27 13 -27 28v55c0 15 12 28 27 28h70c15 0 27 -13 27 -28zM155 28v479c0 15 13 28 29 28h55
c16 0 29 -13 29 -28v-479c0 -15 -13 -28 -29 -28h-55c-16 0 -29 13 -29 28z" />
    <glyph glyph-name="ntilde" unicode="&#xf1;" horiz-adv-x="464" 
d="M163 507v-32c20 46 66 77 124 77c77 0 132 -71 132 -148v-376c0 -15 -13 -28 -29 -28h-55c-16 0 -29 13 -29 28v344c0 48 -26 80 -71 80c-44 0 -72 -39 -72 -80v-344c0 -15 -13 -28 -29 -28h-55c-16 0 -29 13 -29 28v479c0 15 13 28 29 28h55c16 0 29 -13 29 -28z
M237 625c-16 9 -33 18 -58 18c-26 0 -50 -22 -60 -28c-3 -2 -7 -4 -10 -4c-7 0 -15 9 -42 54c-3 5 -4 9 -4 12c0 6 4 9 12 15c13 10 55 40 100 40c26 0 44 -11 60 -19c16 -9 33 -18 58 -18c26 0 51 24 61 30c3 2 7 4 10 4c7 0 15 -9 42 -54c3 -5 4 -9 4 -12
c0 -6 -4 -9 -12 -15c-13 -10 -56 -42 -101 -42c-26 0 -44 11 -60 19z" />
    <glyph glyph-name="oacute" unicode="&#xf3;" horiz-adv-x="448" 
d="M36 159v217c0 98 78 176 187 176c110 0 188 -78 188 -176v-217c0 -98 -78 -176 -188 -176c-109 0 -187 78 -187 176zM298 159v217c0 42 -31 76 -75 76c-43 0 -74 -34 -74 -76v-217c0 -42 31 -76 74 -76c44 0 75 34 75 76zM345 709l-64 -91c-12 -16 -17 -21 -36 -21h-36
c-15 0 -24 9 -24 21c0 5 1 10 4 15l35 76c7 15 21 28 36 28h66c11 0 22 -9 22 -19c0 -2 -1 -6 -3 -9z" />
    <glyph glyph-name="ograve" unicode="&#xf2;" horiz-adv-x="448" 
d="M36 159v217c0 98 78 176 187 176c110 0 188 -78 188 -176v-217c0 -98 -78 -176 -188 -176c-109 0 -187 78 -187 176zM298 159v217c0 42 -31 76 -75 76c-43 0 -74 -34 -74 -76v-217c0 -42 31 -76 74 -76c44 0 75 34 75 76zM169 618l-64 91c-2 3 -3 7 -3 9
c0 10 11 19 22 19h66c15 0 29 -13 36 -28l35 -76c3 -5 4 -10 4 -15c0 -12 -9 -21 -24 -21h-36c-19 0 -24 5 -36 21z" />
    <glyph glyph-name="ocircumflex" unicode="&#xf4;" horiz-adv-x="448" 
d="M36 159v217c0 98 78 176 187 176c110 0 188 -78 188 -176v-217c0 -98 -78 -176 -188 -176c-109 0 -187 78 -187 176zM298 159v217c0 42 -31 76 -75 76c-43 0 -74 -34 -74 -76v-217c0 -42 31 -76 74 -76c44 0 75 34 75 76zM249 751c17 0 22 -11 30 -22l78 -116
c2 -3 4 -8 4 -11c0 -5 -4 -10 -16 -10h-53c-9 0 -13 4 -20 12l-50 63l-50 -63c-7 -8 -11 -12 -20 -12h-53c-12 0 -16 5 -16 10c0 3 2 8 4 11l78 116c8 11 13 22 30 22h54z" />
    <glyph glyph-name="odieresis" unicode="&#xf6;" horiz-adv-x="448" 
d="M36 159v217c0 98 78 176 187 176c110 0 188 -78 188 -176v-217c0 -98 -78 -176 -188 -176c-109 0 -187 78 -187 176zM298 159v217c0 42 -31 76 -75 76c-43 0 -74 -34 -74 -76v-217c0 -42 31 -76 74 -76c44 0 75 34 75 76zM187 695v-55c0 -15 -12 -28 -27 -28h-70
c-15 0 -27 13 -27 28v55c0 15 12 28 27 28h70c15 0 27 -13 27 -28zM386 695v-55c0 -15 -12 -28 -27 -28h-70c-15 0 -27 13 -27 28v55c0 15 12 28 27 28h70c15 0 27 -13 27 -28z" />
    <glyph glyph-name="otilde" unicode="&#xf5;" horiz-adv-x="448" 
d="M36 159v217c0 98 78 176 187 176c110 0 188 -78 188 -176v-217c0 -98 -78 -176 -188 -176c-109 0 -187 78 -187 176zM298 159v217c0 42 -31 76 -75 76c-43 0 -74 -34 -74 -76v-217c0 -42 31 -76 74 -76c44 0 75 34 75 76zM227 625c-16 9 -33 18 -58 18
c-26 0 -50 -22 -60 -28c-3 -2 -7 -4 -10 -4c-7 0 -15 9 -42 54c-3 5 -4 9 -4 12c0 6 4 9 12 15c13 10 55 40 100 40c26 0 44 -11 60 -19c16 -9 33 -18 58 -18c26 0 51 24 61 30c3 2 7 4 10 4c7 0 15 -9 42 -54c3 -5 4 -9 4 -12c0 -6 -4 -9 -12 -15c-13 -10 -56 -42 -101 -42
c-26 0 -44 11 -60 19z" />
    <glyph glyph-name="uacute" unicode="&#xfa;" horiz-adv-x="464" 
d="M300 28v32c-20 -46 -66 -77 -124 -77c-77 0 -132 71 -132 148v376c0 15 13 28 29 28h55c16 0 29 -13 29 -28v-344c0 -48 26 -80 71 -80c44 0 72 39 72 80v344c0 15 13 28 29 28h55c16 0 29 -13 29 -28v-479c0 -15 -13 -28 -29 -28h-55c-16 0 -29 13 -29 28zM345 709
l-64 -91c-12 -16 -17 -21 -36 -21h-36c-15 0 -24 9 -24 21c0 5 1 10 4 15l35 76c7 15 21 28 36 28h66c11 0 22 -9 22 -19c0 -2 -1 -6 -3 -9z" />
    <glyph glyph-name="ugrave" unicode="&#xf9;" horiz-adv-x="464" 
d="M300 28v32c-20 -46 -66 -77 -124 -77c-77 0 -132 71 -132 148v376c0 15 13 28 29 28h55c16 0 29 -13 29 -28v-344c0 -48 26 -80 71 -80c44 0 72 39 72 80v344c0 15 13 28 29 28h55c16 0 29 -13 29 -28v-479c0 -15 -13 -28 -29 -28h-55c-16 0 -29 13 -29 28zM201 619
l-64 91c-2 3 -3 7 -3 9c0 10 11 19 22 19h66c15 0 29 -13 36 -28l35 -76c3 -5 4 -10 4 -15c0 -12 -9 -21 -24 -21h-36c-19 0 -24 5 -36 21z" />
    <glyph glyph-name="ucircumflex" unicode="&#xfb;" horiz-adv-x="464" 
d="M300 28v32c-20 -46 -66 -77 -124 -77c-77 0 -132 71 -132 148v376c0 15 13 28 29 28h55c16 0 29 -13 29 -28v-344c0 -48 26 -80 71 -80c44 0 72 39 72 80v344c0 15 13 28 29 28h55c16 0 29 -13 29 -28v-479c0 -15 -13 -28 -29 -28h-55c-16 0 -29 13 -29 28zM265 751
c17 0 22 -11 30 -22l78 -116c2 -3 4 -8 4 -11c0 -5 -4 -10 -16 -10h-53c-9 0 -13 4 -20 12l-50 63l-50 -63c-7 -8 -11 -12 -20 -12h-53c-12 0 -16 5 -16 10c0 3 2 8 4 11l78 116c8 11 13 22 30 22h54z" />
    <glyph glyph-name="udieresis" unicode="&#xfc;" horiz-adv-x="464" 
d="M300 28v32c-20 -46 -66 -77 -124 -77c-77 0 -132 71 -132 148v376c0 15 13 28 29 28h55c16 0 29 -13 29 -28v-344c0 -48 26 -80 71 -80c44 0 72 39 72 80v344c0 15 13 28 29 28h55c16 0 29 -13 29 -28v-479c0 -15 -13 -28 -29 -28h-55c-16 0 -29 13 -29 28zM189 695v-55
c0 -15 -12 -28 -27 -28h-70c-15 0 -27 13 -27 28v55c0 15 12 28 27 28h70c15 0 27 -13 27 -28zM388 695v-55c0 -15 -12 -28 -27 -28h-70c-15 0 -27 13 -27 28v55c0 15 12 28 27 28h70c15 0 27 -13 27 -28z" />
    <glyph glyph-name="dagger" unicode="&#x2020;" horiz-adv-x="412" 
d="M154 524v179c0 15 13 28 29 28h45c16 0 29 -13 29 -28v-179h94c15 0 28 -13 28 -29v-40c0 -16 -13 -29 -28 -29h-94v-398c0 -15 -13 -28 -29 -28h-45c-16 0 -29 13 -29 28v398h-94c-15 0 -28 13 -28 29v40c0 16 13 29 28 29h94z" />
    <glyph glyph-name="degree" unicode="&#xb0;" horiz-adv-x="380" 
d="M328 589c0 -77 -63 -137 -139 -137s-139 60 -139 137c0 78 63 139 139 139s139 -62 139 -139zM277 589c0 49 -40 87 -88 87c-47 0 -85 -38 -85 -87c0 -48 38 -86 85 -86c48 0 88 38 88 86z" />
    <glyph glyph-name="cent" unicode="&#xa2;" horiz-adv-x="597" 
d="M483 380c0 -15 -13 -28 -29 -28h-55c-16 0 -29 13 -29 28c0 40 -26 72 -72 72c-43 0 -72 -34 -72 -76v-217c0 -42 29 -76 72 -76c46 0 72 35 72 76v8c0 15 13 28 29 28h55c16 0 29 -13 29 -28v-8c0 -98 -75 -176 -185 -176c-6 0 -11 0 -17 1l-17 -66
c-3 -12 -14 -21 -26 -21c-2 0 -12 2 -14 3l-48 13c-12 2 -20 13 -20 25c0 3 0 6 1 9l20 76c-40 32 -64 81 -64 136v217c0 98 76 176 185 176c6 0 11 0 19 -1l15 58c3 13 14 21 26 21c2 0 5 0 7 -1l55 -14c12 -3 20 -14 20 -26c0 -3 -1 -9 -2 -12l-17 -66
c39 -31 62 -78 62 -131z" />
    <glyph glyph-name="sterling" unicode="&#xa3;" horiz-adv-x="597" 
d="M84 99c36 0 45 18 45 57v154h-45c-15 0 -28 13 -28 29v36c0 16 13 29 28 29h45v132c0 125 91 195 206 195c109 0 190 -75 190 -192c0 -16 -12 -28 -28 -28h-55c-15 0 -27 12 -27 28c0 52 -22 86 -80 86s-84 -37 -84 -89v-132h146c15 0 28 -13 28 -29v-36
c0 -16 -13 -29 -28 -29h-146v-211h263c15 0 28 -13 28 -29v-41c0 -16 -13 -29 -28 -29h-432c-15 0 -28 13 -28 29v41c0 16 15 29 30 29z" />
    <glyph glyph-name="section" unicode="&#xa7;" horiz-adv-x="478" 
d="M193 247l89 -65c25 16 46 54 46 81c0 24 -4 44 -44 72l-89 65c-25 -16 -46 -54 -46 -81c0 -24 4 -44 44 -72zM113 463c-31 30 -46 58 -46 106c0 91 78 161 182 161s184 -66 184 -156c0 -15 -12 -27 -27 -27h-59c-15 0 -26 14 -27 29c-8 35 -34 51 -71 51
c-40 0 -72 -12 -72 -62c0 -46 98 -99 170 -148c65 -45 89 -96 89 -158c0 -59 -32 -107 -72 -140c31 -30 46 -60 46 -108c0 -91 -78 -161 -182 -161s-184 66 -184 156c0 15 12 27 27 27h59c15 0 26 -12 27 -27c8 -35 34 -51 71 -51c40 0 72 12 72 62c0 46 -98 99 -170 148
c-65 45 -89 96 -89 158c0 59 32 107 72 140z" />
    <glyph glyph-name="bullet" unicode="&#x2022;" horiz-adv-x="341" 
d="M297 268c0 -70 -58 -127 -127 -127s-127 57 -127 127s57 127 127 127c69 0 127 -57 127 -127z" />
    <glyph glyph-name="paragraph" unicode="&#xb6;" horiz-adv-x="524" 
d="M212 -42v402h-54c-65 0 -117 52 -117 117v114c0 65 62 118 127 118h271c16 0 29 -13 29 -28v-723c0 -15 -13 -28 -29 -28h-35c-16 0 -29 13 -29 28v637h-70v-637c0 -15 -13 -28 -29 -28h-35c-16 0 -29 13 -29 28z" />
    <glyph glyph-name="germandbls" unicode="&#xdf;" horiz-adv-x="523" 
d="M262 440h27c36 0 52 29 52 64v32c0 52 -40 89 -91 89s-87 -37 -87 -89v-508c0 -15 -13 -28 -29 -28h-55c-16 0 -29 13 -29 28v508c0 125 88 195 203 195c108 0 201 -75 201 -195c0 -82 -22 -115 -75 -137c76 -19 100 -70 100 -132v-150c0 -66 -68 -117 -138 -117h-58
c-15 0 -28 13 -28 29v48c0 16 13 29 28 29h8c46 0 61 11 61 65v100c0 71 -40 76 -72 76h-18c-12 0 -22 10 -22 22v49c0 12 10 22 22 22z" />
    <glyph glyph-name="registered" unicode="&#xae;" horiz-adv-x="826" 
d="M476 445v38c0 32 -26 53 -56 53h-61v-143h61c30 0 56 20 56 52zM476 126v141c0 32 -12 57 -49 57h-63v-198c0 -13 -10 -23 -23 -23h-46c-12 0 -23 10 -23 23v458c0 13 11 23 23 23h159c51 0 108 -43 108 -109v-47c0 -51 -30 -88 -65 -92c41 -8 71 -40 71 -93v-140
c0 -13 -10 -23 -23 -23h-46c-12 0 -23 10 -23 23zM782 353c0 -204 -165 -370 -368 -370c-205 0 -371 166 -371 370c0 203 166 369 371 369c203 0 368 -166 368 -369zM743 353c0 183 -147 329 -329 329c-184 0 -331 -146 -331 -329c0 -184 147 -330 331 -330
c182 0 329 146 329 330z" />
    <glyph glyph-name="copyright" unicode="&#xa9;" horiz-adv-x="826" 
d="M350 466v-221c0 -42 24 -67 66 -67c38 0 67 25 67 67c0 12 10 20 22 20h41c12 0 22 -8 22 -20v-10c0 -74 -66 -134 -152 -134c-88 0 -151 65 -151 139v234c0 70 63 135 151 135c86 0 152 -60 152 -134v-10c0 -12 -10 -20 -22 -20h-41c-12 0 -22 8 -22 20
c0 42 -29 67 -67 67c-42 0 -66 -24 -66 -66zM782 353c0 -204 -165 -370 -368 -370c-205 0 -371 166 -371 370c0 203 166 369 371 369c203 0 368 -166 368 -369zM743 353c0 183 -147 329 -329 329c-184 0 -331 -146 -331 -329c0 -184 147 -330 331 -330
c182 0 329 146 329 330z" />
    <glyph glyph-name="trademark" unicode="&#x2122;" horiz-adv-x="678" 
d="M183 638v-258c0 -12 -9 -22 -20 -22h-38c-12 0 -21 10 -21 22v257h-61c-13 0 -21 8 -21 19v31c0 12 8 21 21 21h202c13 0 21 -9 21 -21v-30c0 -11 -8 -19 -21 -19h-62zM473 358h-10c-11 0 -18 12 -21 21l-68 210v-209c0 -12 -9 -22 -21 -22h-34c-12 0 -21 10 -21 22v307
c0 12 9 22 21 22h71c11 0 15 -9 20 -21l58 -179l57 179c5 12 9 21 21 21h71c12 0 20 -10 20 -22v-307c0 -12 -8 -22 -20 -22h-34c-12 0 -21 10 -21 22v209l-68 -210c-3 -9 -10 -21 -21 -21z" />
    <glyph glyph-name="acute" unicode="&#xb4;" horiz-adv-x="287" 
d="M270 722l-64 -91c-12 -16 -17 -21 -36 -21h-36c-15 0 -24 9 -24 21c0 5 1 10 4 15l35 76c7 15 21 28 36 28h66c11 0 22 -9 22 -19c0 -2 -1 -6 -3 -9z" />
    <glyph glyph-name="dieresis" unicode="&#xa8;" horiz-adv-x="494" 
d="M209 672v-55c0 -15 -12 -28 -27 -28h-70c-15 0 -27 13 -27 28v55c0 15 12 28 27 28h70c15 0 27 -13 27 -28zM408 672v-55c0 -15 -12 -28 -27 -28h-70c-15 0 -27 13 -27 28v55c0 15 12 28 27 28h70c15 0 27 -13 27 -28z" />
    <glyph glyph-name="notequal" unicode="&#x2260;" 
d="M93 424h210l46 96c13 26 21 28 36 28h31c12 0 18 -8 18 -19c0 -3 -1 -7 -3 -11l-45 -94h61c15 0 28 -13 28 -29v-41c0 -16 -13 -29 -28 -29h-109l-53 -112h162c15 0 28 -13 28 -29v-40c0 -16 -13 -29 -28 -29h-209l-47 -98c-12 -25 -20 -28 -35 -28h-31
c-13 0 -18 8 -18 20c0 3 1 7 2 11l45 95h-61c-15 0 -28 13 -28 29v40c0 16 13 29 28 29h108l54 112h-162c-15 0 -28 13 -28 29v41c0 16 13 29 28 29z" />
    <glyph glyph-name="AE" unicode="&#xc6;" horiz-adv-x="733" 
d="M338 28v127h-155l-46 -127c-8 -20 -17 -28 -32 -28h-66c-13 0 -26 8 -26 20c0 3 1 6 2 8l236 656c5 14 15 25 33 25h383c15 0 28 -13 28 -29v-48c0 -16 -13 -29 -28 -29h-207v-177h177c15 0 28 -13 28 -29v-47c0 -16 -13 -29 -28 -29h-177v-215h212c15 0 28 -13 28 -29
v-48c0 -16 -13 -29 -28 -29h-305c-18 0 -29 13 -29 28zM338 586l-120 -333h120v333z" />
    <glyph glyph-name="Oslash" unicode="&#xd8;" horiz-adv-x="559" 
d="M437 644l35 36c7 6 14 9 22 9c6 0 13 -3 17 -8l39 -40c6 -6 11 -13 11 -20c0 -4 -2 -9 -6 -13l-89 -91v-345c0 -125 -91 -195 -206 -195c-53 0 -101 15 -137 43l-40 -41c-6 -5 -13 -9 -20 -9s-14 2 -19 8l-39 40c-5 5 -7 11 -7 18s2 15 8 21l55 56c-5 18 -7 38 -7 59v364
c0 125 91 195 206 195c76 0 141 -31 177 -87zM344 172v364c0 52 -33 89 -84 89s-84 -37 -84 -89v-364c0 -52 33 -89 84 -89s84 37 84 89z" />
    <glyph glyph-name="infinity" unicode="&#x221e;" horiz-adv-x="817" 
d="M137 320c0 -53 30 -87 79 -87c42 0 72 31 106 66l20 21l-20 21c-34 36 -64 66 -106 66c-49 0 -79 -34 -79 -87zM408 394l49 49c52 53 95 68 154 68s162 -58 162 -191s-103 -191 -162 -191s-102 16 -154 68l-49 49l-49 -49c-52 -52 -95 -68 -154 -68s-162 58 -162 191
s103 191 162 191s102 -15 154 -68zM679 320c0 53 -30 87 -79 87c-42 0 -72 -30 -106 -66l-20 -21l20 -21c34 -35 64 -66 106 -66c49 0 79 34 79 87z" />
    <glyph glyph-name="plusminus" unicode="&#xb1;" 
d="M317 548v-183h155c15 0 28 -13 28 -29v-41c0 -16 -13 -29 -28 -29h-155v-168h155c15 0 28 -13 28 -29v-40c0 -16 -13 -29 -28 -29h-405c-15 0 -28 13 -28 29v40c0 16 13 29 28 29h158v168h-158c-15 0 -28 13 -28 29v41c0 16 13 29 28 29h158v183c0 15 13 28 29 28h34
c16 0 29 -13 29 -28z" />
    <glyph glyph-name="lessequal" unicode="&#x2264;" 
d="M197 423h249c15 0 28 -13 28 -29v-41c0 -16 -13 -29 -28 -29h-354c-15 0 -28 13 -28 29v76c0 28 7 39 26 46l339 127c9 3 16 5 23 5c15 0 23 -11 23 -27v-34c0 -20 -7 -33 -26 -39zM92 212h354c15 0 28 -13 28 -29v-40c0 -16 -13 -29 -28 -29h-354c-15 0 -28 13 -28 29
v40c0 16 13 29 28 29z" />
    <glyph glyph-name="greaterequal" unicode="&#x2265;" 
d="M342 423l-252 84c-19 6 -26 19 -26 39v34c0 16 8 27 23 27c7 0 14 -2 23 -5l339 -127c19 -7 26 -18 26 -46v-76c0 -16 -13 -29 -28 -29h-354c-15 0 -28 13 -28 29v41c0 16 13 29 28 29h249zM93 212h354c15 0 28 -13 28 -29v-40c0 -16 -13 -29 -28 -29h-354
c-15 0 -28 13 -28 29v40c0 16 13 29 28 29z" />
    <glyph glyph-name="yen" unicode="&#xa5;" horiz-adv-x="597" 
d="M360 328h118c15 0 28 -13 28 -29v-40c0 -16 -13 -29 -28 -29h-118v-202c0 -15 -13 -28 -29 -28h-66c-16 0 -29 13 -29 28v202h-118c-15 0 -28 13 -28 29v40c0 16 13 29 28 29h118l-24 47h-94c-15 0 -28 13 -28 29v41c0 16 13 29 28 29h44l-103 204c-2 4 -2 8 -2 10
c0 12 8 21 22 21h64c16 0 23 -5 36 -31l119 -230l119 230c13 26 20 31 36 31h64c14 0 22 -9 22 -21c0 -2 0 -6 -2 -10l-103 -204h44c15 0 28 -13 28 -29v-41c0 -16 -13 -29 -28 -29h-94z" />
    <glyph glyph-name="mu" unicode="&#xb5;" horiz-adv-x="470" 
d="M306 28v32c-20 -46 -66 -77 -124 -77c-7 0 -13 1 -19 2v-141c0 -15 -13 -28 -29 -28h-55c-16 0 -29 13 -29 28v663c0 15 13 28 29 28h55c16 0 29 -13 29 -28v-344c0 -48 26 -80 71 -80c44 0 72 39 72 80v344c0 15 13 28 29 28h55c16 0 29 -13 29 -28v-479
c0 -15 -13 -28 -29 -28h-55c-16 0 -29 13 -29 28z" />
    <glyph glyph-name="mu" unicode="&#x3bc;" horiz-adv-x="470" 
d="M306 28v32c-20 -46 -66 -77 -124 -77c-7 0 -13 1 -19 2v-141c0 -15 -13 -28 -29 -28h-55c-16 0 -29 13 -29 28v663c0 15 13 28 29 28h55c16 0 29 -13 29 -28v-344c0 -48 26 -80 71 -80c44 0 72 39 72 80v344c0 15 13 28 29 28h55c16 0 29 -13 29 -28v-479
c0 -15 -13 -28 -29 -28h-55c-16 0 -29 13 -29 28z" />
    <glyph glyph-name="partialdiff" unicode="&#x2202;" horiz-adv-x="662" 
d="M257 563c-4 -7 -12 -11 -21 -11c-6 0 -14 1 -19 5l-38 28c-8 5 -12 13 -12 22c0 6 2 12 5 17c52 77 119 133 223 133c129 0 218 -93 218 -264c0 -265 -121 -513 -367 -513c-125 0 -194 70 -194 191c0 87 57 181 122 229c47 35 109 59 167 74c41 11 105 16 163 17v27
c-1 75 -34 130 -120 130c-51 0 -92 -26 -127 -85zM497 387h-29c-139 -2 -300 -72 -300 -215c0 -49 32 -80 98 -80c107 0 206 113 231 295z" />
    <glyph glyph-name="summation" unicode="&#x2211;" horiz-adv-x="564" 
d="M75 83l187 242l-187 244c-9 9 -13 17 -13 47v66c0 15 12 27 28 27h394c16 0 28 -12 28 -27v-52c0 -15 -12 -27 -28 -27h-314l189 -238c8 -11 16 -19 16 -40s-8 -29 -16 -40l-189 -236h314c16 0 28 -12 28 -27v-52c0 -15 -12 -27 -28 -27h-394c-16 0 -28 12 -28 27v66
c0 30 4 38 13 47z" />
    <glyph glyph-name="product" unicode="&#x220f;" horiz-adv-x="561" 
d="M382 603h-204v-633c0 -15 -13 -28 -29 -28h-65c-16 0 -29 13 -29 28v711c0 15 13 28 29 28h392c16 0 29 -13 29 -28v-711c0 -15 -13 -28 -29 -28h-65c-16 0 -29 13 -29 28v633z" />
    <glyph glyph-name="pi" unicode="&#x3c0;" horiz-adv-x="584" 
d="M373 114v316h-159v-402c0 -15 -13 -28 -29 -28h-53c-16 0 -29 13 -31 28v402h-58c-15 0 -28 13 -28 29v48c0 16 11 28 26 28h501c15 0 26 -12 26 -28v-48c0 -16 -13 -29 -28 -29h-56v-296c0 -16 13 -31 30 -31c15 0 28 -13 28 -29v-46c0 -16 -13 -29 -28 -29h-25
c-66 0 -116 51 -116 115z" />
    <glyph glyph-name="integral" unicode="&#x222b;" horiz-adv-x="448" 
d="M156 -23v624c0 72 61 129 136 129h79c15 0 28 -13 28 -29v-44c0 -16 -13 -29 -28 -29h-46c-51 0 -56 -26 -56 -59v-624c0 -72 -61 -129 -136 -129h-57c-15 0 -28 13 -28 29v44c0 16 13 29 28 29h24c51 0 56 26 56 59z" />
    <glyph glyph-name="ordfeminine" unicode="&#xaa;" horiz-adv-x="333" 
d="M214 483v50c-27 -13 -54 -26 -75 -37c-31 -15 -33 -28 -33 -45c0 -24 17 -37 42 -37c40 0 66 27 66 69zM125 346c-42 0 -99 25 -99 98c0 57 26 87 67 104l102 45c12 6 19 7 19 21c0 32 -18 49 -52 49c-43 0 -46 -40 -46 -49c0 -6 -6 -25 -25 -25h-28c-13 0 -24 11 -24 25
c0 61 45 116 123 116s128 -45 128 -116v-236c0 -5 -6 -24 -24 -24h-29c-12 0 -23 11 -23 24v19c-13 -23 -46 -51 -89 -51z" />
    <glyph glyph-name="ordmasculine" unicode="&#xba;" horiz-adv-x="314" 
d="M209 462v147c0 28 -24 52 -52 52s-52 -24 -52 -52v-147c0 -28 24 -52 52 -52s52 24 52 52zM281 619v-167c0 -62 -55 -112 -124 -112s-125 50 -125 112v167c0 62 56 112 125 112s124 -50 124 -112z" />
    <glyph glyph-name="Omega" unicode="&#x3a9;" horiz-adv-x="756" 
d="M377 733h1c225 0 297 -122 297 -329c0 -170 -47 -273 -135 -298h131c16 0 28 -13 28 -28v-50c0 -15 -12 -28 -28 -28h-243c-14 0 -26 11 -26 25v87c0 25 18 23 31 30c74 39 103 104 103 263c0 165 -54 214 -159 214c-104 0 -158 -49 -158 -214c0 -159 29 -224 103 -263
c13 -7 31 -5 31 -30v-87c0 -14 -12 -25 -26 -25h-243c-16 0 -28 13 -28 28v50c0 15 12 28 28 28h131c-88 25 -135 128 -135 298c0 207 72 329 297 329z" />
    <glyph glyph-name="Omega" unicode="&#x2126;" horiz-adv-x="756" 
d="M377 733h1c225 0 297 -122 297 -329c0 -170 -47 -273 -135 -298h131c16 0 28 -13 28 -28v-50c0 -15 -12 -28 -28 -28h-243c-14 0 -26 11 -26 25v87c0 25 18 23 31 30c74 39 103 104 103 263c0 165 -54 214 -159 214c-104 0 -158 -49 -158 -214c0 -159 29 -224 103 -263
c13 -7 31 -5 31 -30v-87c0 -14 -12 -25 -26 -25h-243c-16 0 -28 13 -28 28v50c0 15 12 28 28 28h131c-88 25 -135 128 -135 298c0 207 72 329 297 329z" />
    <glyph glyph-name="ae" unicode="&#xe6;" horiz-adv-x="709" 
d="M297 261l-114 -54c-32 -15 -38 -41 -38 -60c0 -34 10 -68 74 -69c60 0 78 50 78 90v93zM559 330v46c0 42 -31 76 -75 76c-43 0 -74 -34 -74 -76v-46h149zM178 -17c-65 0 -152 41 -152 149c0 83 38 128 98 153l122 50c38 16 51 27 51 56c0 36 -26 61 -70 61
c-41 0 -69 -26 -69 -65v-9c0 -15 -13 -28 -28 -28h-53c-16 0 -28 13 -28 28v9c0 94 75 165 184 165c55 0 97 -17 126 -44c32 27 75 44 125 44c110 0 188 -78 188 -176v-107c0 -15 -13 -28 -29 -28h-233v-82c0 -42 31 -76 74 -76c44 0 75 34 75 76v3c0 15 13 28 29 28h55
c16 0 29 -13 29 -28v-3c0 -98 -78 -176 -188 -176c-72 0 -119 27 -151 71c-32 -44 -83 -71 -155 -71z" />
    <glyph glyph-name="oslash" unicode="&#xf8;" horiz-adv-x="486" 
d="M56 159v217c0 98 78 176 187 176c58 0 107 -22 141 -57l28 29c6 6 13 10 20 10s13 -3 19 -9l39 -40c6 -6 11 -14 11 -21c0 -4 -2 -8 -6 -12l-64 -66v-227c0 -98 -78 -176 -188 -176c-50 0 -92 16 -125 42l-29 -30c-6 -5 -13 -9 -20 -9s-14 2 -19 8l-39 40
c-5 5 -7 11 -7 18s2 15 8 21l48 49c-3 12 -4 24 -4 37zM318 159v217c0 42 -31 76 -75 76c-43 0 -74 -34 -74 -76v-217c0 -42 31 -76 74 -76c44 0 75 34 75 76z" />
    <glyph glyph-name="questiondown" unicode="&#xbf;" horiz-adv-x="466" 
d="M312 195v12c0 15 13 28 29 28h61c16 0 30 -13 30 -28v-16c0 -115 -81 -191 -198 -191c-112 0 -201 65 -201 191c0 38 8 78 29 103l102 119c19 23 27 43 27 74v24c0 15 11 28 27 28h64c16 0 29 -13 29 -28v-38c0 -33 -3 -66 -26 -92l-111 -125c-9 -11 -20 -25 -20 -59
c0 -55 18 -91 79 -91s79 38 79 89zM189 650v55c0 15 11 28 27 28h68c16 0 29 -13 29 -28v-55c0 -15 -13 -28 -29 -28h-68c-16 0 -27 13 -27 28z" />
    <glyph glyph-name="exclamdown" unicode="&#xa1;" horiz-adv-x="279" 
d="M176 0h-74c-16 0 -29 13 -29 28v137c0 96 34 320 34 320c1 14 12 27 27 27h10c15 0 26 -13 27 -27c0 0 34 -224 34 -320v-137c0 -15 -13 -28 -29 -28zM205 681v-55c0 -15 -13 -28 -29 -28h-74c-16 0 -29 13 -29 28v55c0 15 13 28 29 28h74c16 0 29 -13 29 -28z" />
    <glyph glyph-name="logicalnot" unicode="&#xac;" 
d="M85 375h369c16 0 29 -13 29 -28v-162c0 -15 -13 -28 -29 -28h-40c-16 0 -29 13 -29 28v92h-300c-15 0 -28 13 -28 29v40c0 16 13 29 28 29z" />
    <glyph glyph-name="radical" unicode="&#x221a;" horiz-adv-x="762" 
d="M740 790h-205l-188 -762c-4 -16 -19 -28 -34 -28h-88c-15 0 -30 12 -34 28l-67 249h-73c-15 0 -28 13 -28 29v48c0 16 11 28 26 28h139c15 0 23 -6 27 -21l54 -226l174 739c4 15 12 21 27 21h272c15 0 26 -12 26 -28v-48c0 -16 -13 -29 -28 -29z" />
    <glyph glyph-name="florin" unicode="&#x192;" horiz-adv-x="597" 
d="M230 384h-43c-15 0 -28 13 -28 29v44c0 16 13 29 28 29h43v95c0 72 61 129 136 129h79c15 0 28 -13 28 -29v-44c0 -16 -13 -29 -28 -29h-46c-51 0 -56 -26 -56 -59v-63h102c15 0 28 -13 28 -29v-44c0 -16 -13 -29 -28 -29h-102v-439c0 -72 -61 -129 -136 -129h-57
c-15 0 -28 13 -28 29v44c0 16 13 29 28 29h24c51 0 56 26 56 59v407z" />
    <glyph glyph-name="approxequal" unicode="&#x2248;" 
d="M470 353c-17 -12 -71 -48 -131 -48c-34 0 -56 11 -77 22c-20 10 -40 20 -68 20c-24 0 -60 -26 -74 -35c-4 -3 -8 -4 -13 -4c-10 0 -20 6 -25 15l-21 35c-3 5 -4 11 -4 16c0 10 5 19 13 24c14 10 73 48 130 48c31 0 53 -10 71 -20c19 -11 43 -22 74 -22c25 0 72 31 76 34
s9 4 14 4c9 0 19 -6 24 -15l20 -34c3 -5 4 -10 4 -15c0 -10 -5 -19 -13 -25zM470 139c-17 -12 -71 -48 -131 -48c-34 0 -56 11 -77 22c-20 10 -40 20 -68 20c-24 0 -60 -26 -74 -35c-4 -3 -8 -4 -13 -4c-10 0 -20 6 -25 15l-21 35c-3 5 -4 11 -4 16c0 10 5 19 13 24
c14 10 73 48 130 48c31 0 53 -10 71 -20c19 -11 43 -22 74 -22c25 0 72 31 76 34s9 4 14 4c9 0 19 -6 24 -15l20 -34c3 -5 4 -10 4 -15c0 -10 -5 -19 -13 -25z" />
    <glyph glyph-name="Delta" unicode="&#x394;" horiz-adv-x="561" 
d="M243 709h74c16 0 27 -13 32 -30l170 -643c1 -5 1 -8 1 -12c0 -14 -16 -24 -31 -24h-418c-15 0 -31 10 -31 24c0 4 0 7 1 12l170 643c5 17 16 30 32 30zM397 106l-117 475l-117 -475h234z" />
    <glyph glyph-name="Delta" unicode="&#x2206;" horiz-adv-x="561" 
d="M243 709h74c16 0 27 -13 32 -30l170 -643c1 -5 1 -8 1 -12c0 -14 -16 -24 -31 -24h-418c-15 0 -31 10 -31 24c0 4 0 7 1 12l170 643c5 17 16 30 32 30zM397 106l-117 475l-117 -475h234z" />
    <glyph glyph-name="guillemotleft" unicode="&#xab;" horiz-adv-x="559" 
d="M264 368l-109 -107l109 -107c11 -11 16 -17 16 -31v-47c0 -11 -6 -23 -19 -23c-5 0 -18 0 -24 6l-160 157c-8 8 -14 14 -14 23v44c0 9 6 15 14 23l160 157c6 6 19 6 24 6c13 0 19 -12 19 -23v-47c0 -14 -5 -20 -16 -31zM489 368l-109 -107l109 -107c11 -11 16 -17 16 -31
v-47c0 -11 -6 -23 -19 -23c-5 0 -18 0 -24 6l-160 157c-8 8 -14 14 -14 23v44c0 9 6 15 14 23l160 157c6 6 19 6 24 6c13 0 19 -12 19 -23v-47c0 -14 -5 -20 -16 -31z" />
    <glyph glyph-name="guillemotright" unicode="&#xbb;" horiz-adv-x="559" 
d="M403 261l-109 107c-11 11 -16 17 -16 31v47c0 11 6 23 19 23c5 0 18 0 24 -6l160 -157c8 -8 14 -14 14 -23v-44c0 -9 -6 -15 -14 -23l-160 -157c-6 -6 -19 -6 -24 -6c-13 0 -19 12 -19 23v47c0 14 5 20 16 31zM178 261l-109 107c-11 11 -16 17 -16 31v47c0 11 6 23 19 23
c5 0 18 0 24 -6l160 -157c8 -8 14 -14 14 -23v-44c0 -9 -6 -15 -14 -23l-160 -157c-6 -6 -19 -6 -24 -6c-13 0 -19 12 -19 23v47c0 14 5 20 16 31z" />
    <glyph glyph-name="ellipsis" unicode="&#x2026;" horiz-adv-x="707" 
d="M182 83v-55c0 -15 -13 -28 -29 -28h-74c-16 0 -29 13 -29 28v55c0 15 13 28 29 28h74c16 0 29 -13 29 -28zM419 83v-55c0 -15 -13 -28 -29 -28h-74c-16 0 -29 13 -29 28v55c0 15 13 28 29 28h74c16 0 29 -13 29 -28zM656 83v-55c0 -15 -13 -28 -29 -28h-74
c-16 0 -29 13 -29 28v55c0 15 13 28 29 28h74c16 0 29 -13 29 -28z" />
    <glyph glyph-name="uni00A0" unicode="&#xa0;" horiz-adv-x="177" 
 />
    <glyph glyph-name="Agrave" unicode="&#xc0;" horiz-adv-x="525" 
d="M335 252l-73 332l-73 -332h146zM195 709h134c12 0 21 -8 23 -18l151 -653c2 -8 3 -16 3 -17c0 -11 -9 -21 -22 -21h-74c-12 0 -19 10 -22 22l-30 126h-192l-30 -126c-3 -12 -10 -22 -22 -22h-74c-13 0 -22 10 -22 21c0 1 1 9 3 17l151 653c2 10 11 18 23 18zM218 786
l-64 91c-2 3 -3 7 -3 9c0 10 11 19 22 19h66c15 0 29 -13 36 -28l35 -76c3 -5 4 -10 4 -15c0 -12 -9 -21 -24 -21h-36c-19 0 -24 5 -36 21z" />
    <glyph glyph-name="Atilde" unicode="&#xc3;" horiz-adv-x="525" 
d="M335 252l-73 332l-73 -332h146zM195 709h134c12 0 21 -8 23 -18l151 -653c2 -8 3 -16 3 -17c0 -11 -9 -21 -22 -21h-74c-12 0 -19 10 -22 22l-30 126h-192l-30 -126c-3 -12 -10 -22 -22 -22h-74c-13 0 -22 10 -22 21c0 1 1 9 3 17l151 653c2 10 11 18 23 18zM263 788
c-16 9 -33 18 -58 18c-26 0 -50 -22 -60 -28c-3 -2 -7 -4 -10 -4c-7 0 -15 9 -42 54c-3 5 -4 9 -4 12c0 6 4 9 12 15c13 10 55 40 100 40c26 0 44 -11 60 -19c16 -9 33 -18 58 -18c26 0 51 24 61 30c3 2 7 4 10 4c7 0 15 -9 42 -54c3 -5 4 -9 4 -12c0 -6 -4 -9 -12 -15
c-13 -10 -56 -42 -101 -42c-26 0 -44 11 -60 19z" />
    <glyph glyph-name="Otilde" unicode="&#xd5;" horiz-adv-x="505" 
d="M336 175v361c0 52 -33 89 -84 89s-84 -37 -84 -89v-361c0 -52 33 -89 84 -89s84 37 84 89zM458 536v-361c0 -125 -91 -195 -206 -195s-206 70 -206 195v361c0 125 91 195 206 195s206 -70 206 -195zM256 788c-16 9 -33 18 -58 18c-26 0 -50 -22 -60 -28
c-3 -2 -7 -4 -10 -4c-7 0 -15 9 -42 54c-3 5 -4 9 -4 12c0 6 4 9 12 15c13 10 55 40 100 40c26 0 44 -11 60 -19c16 -9 33 -18 58 -18c26 0 51 24 61 30c3 2 7 4 10 4c7 0 15 -9 42 -54c3 -5 4 -9 4 -12c0 -6 -4 -9 -12 -15c-13 -10 -56 -42 -101 -42c-26 0 -44 11 -60 19z
" />
    <glyph glyph-name="OE" unicode="&#x152;" horiz-adv-x="738" 
d="M336 172v364c0 52 -33 89 -84 89s-84 -37 -84 -89v-364c0 -52 33 -89 84 -89s84 37 84 89zM358 709h314c15 0 28 -13 28 -29v-48c0 -16 -13 -29 -28 -29h-214v-177h184c15 0 28 -13 28 -29v-47c0 -16 -13 -29 -28 -29h-184v-215h219c15 0 28 -13 28 -29v-48
c0 -16 -13 -29 -28 -29h-319c-31 -16 -67 -23 -106 -23c-115 0 -206 70 -206 195v364c0 125 91 195 206 195c39 0 75 -7 106 -22z" />
    <glyph glyph-name="oe" unicode="&#x153;" horiz-adv-x="710" 
d="M298 159v217c0 42 -31 76 -75 76c-43 0 -74 -34 -74 -76v-217c0 -42 31 -76 74 -76c44 0 75 34 75 76zM560 330v46c0 42 -31 76 -75 76c-43 0 -74 -34 -74 -76v-46h149zM355 30c-33 -30 -79 -47 -132 -47c-109 0 -187 78 -187 176v217c0 98 78 176 187 176
c53 0 99 -18 132 -48c33 30 77 48 130 48c110 0 188 -78 188 -176v-107c0 -15 -13 -28 -29 -28h-233v-82c0 -42 31 -76 74 -76c44 0 75 34 75 76v3c0 15 13 28 29 28h55c16 0 29 -13 29 -28v-3c0 -98 -78 -176 -188 -176c-52 0 -97 17 -130 47z" />
    <glyph glyph-name="endash" unicode="&#x2013;" horiz-adv-x="536" 
d="M61 317h414c15 0 28 -13 28 -29v-40c0 -16 -13 -29 -28 -29h-414c-15 0 -28 13 -28 29v40c0 16 13 29 28 29z" />
    <glyph glyph-name="emdash" unicode="&#x2014;" horiz-adv-x="650" 
d="M66 317h517c15 0 28 -13 28 -29v-40c0 -16 -13 -29 -28 -29h-517c-15 0 -28 13 -28 29v40c0 16 13 29 28 29z" />
    <glyph glyph-name="quotedblleft" unicode="&#x201c;" horiz-adv-x="438" 
d="M127 700h14c8 0 15 -9 15 -19v-12c0 -10 -7 -19 -15 -19h-14c-17 0 -39 -15 -39 -39c0 -16 8 -22 18 -22h35c15 0 27 -12 27 -27v-57c0 -15 -12 -27 -27 -27h-79c-14 0 -26 12 -26 27v84c0 77 50 111 91 111zM332 700h14c8 0 15 -9 15 -19v-12c0 -10 -7 -19 -15 -19h-14
c-17 0 -39 -15 -39 -39c0 -16 8 -22 18 -22h35c15 0 27 -12 27 -27v-57c0 -15 -12 -27 -27 -27h-79c-14 0 -26 12 -26 27v84c0 77 50 111 91 111z" />
    <glyph glyph-name="quotedblright" unicode="&#x201d;" horiz-adv-x="438" 
d="M310 487h-14c-8 0 -15 9 -15 19v12c0 10 7 19 15 19h14c17 0 39 15 39 39c0 16 -8 22 -18 22h-35c-15 0 -27 12 -27 27v57c0 15 12 27 27 27h79c14 0 26 -12 26 -27v-84c0 -77 -50 -111 -91 -111zM105 487h-14c-8 0 -15 9 -15 19v12c0 10 7 19 15 19h14c17 0 39 15 39 39
c0 16 -8 22 -18 22h-35c-15 0 -27 12 -27 27v57c0 15 12 27 27 27h79c14 0 26 -12 26 -27v-84c0 -77 -50 -111 -91 -111z" />
    <glyph glyph-name="quoteleft" unicode="&#x2018;" horiz-adv-x="233" 
d="M155 699h14c8 0 15 -9 15 -19v-12c0 -10 -7 -19 -15 -19h-14c-17 0 -39 -15 -39 -39c0 -16 8 -22 18 -22h35c15 0 27 -12 27 -27v-57c0 -15 -12 -27 -27 -27h-79c-14 0 -26 12 -26 27v84c0 77 50 111 91 111z" />
    <glyph glyph-name="quoteright" unicode="&#x2019;" horiz-adv-x="225" 
d="M65 487h-14c-8 0 -15 9 -15 19v12c0 10 7 19 15 19h14c17 0 39 15 39 39c0 16 -8 22 -18 22h-35c-15 0 -27 12 -27 27v57c0 15 12 27 27 27h79c14 0 26 -12 26 -27v-84c0 -77 -50 -111 -91 -111z" />
    <glyph glyph-name="divide" unicode="&#xf7;" 
d="M241 130h55c15 0 28 -13 28 -29v-40c0 -16 -13 -29 -28 -29h-55c-15 0 -28 13 -28 29v40c0 16 13 29 28 29zM241 504h55c15 0 28 -13 28 -29v-40c0 -16 -13 -29 -28 -29h-55c-15 0 -28 13 -28 29v40c0 16 13 29 28 29zM73 317h393c15 0 28 -13 28 -29v-40
c0 -16 -13 -29 -28 -29h-393c-15 0 -28 13 -28 29v40c0 16 13 29 28 29z" />
    <glyph glyph-name="lozenge" unicode="&#x25ca;" horiz-adv-x="569" 
d="M535 332c0 -6 -2 -11 -5 -18l-177 -392c-8 -12 -14 -20 -36 -20h-66c-22 0 -28 8 -36 20l-177 392c-3 7 -5 12 -5 18s2 11 5 18l177 391c8 12 14 20 36 20h66c22 0 28 -8 36 -20l177 -391c3 -7 5 -12 5 -18zM428 332l-144 335l-144 -335l144 -336z" />
    <glyph glyph-name="ydieresis" unicode="&#xff;" horiz-adv-x="452" 
d="M233 123l97 391c5 15 12 21 26 21h72c12 0 20 -9 20 -20c0 -2 -1 -5 -2 -9l-159 -571c-27 -98 -74 -119 -143 -119h-54c-15 0 -28 13 -28 29v44c0 16 13 29 28 29h46c31 0 41 10 41 27c0 8 -3 19 -6 29l-158 532c-1 4 -2 7 -2 9c0 11 8 20 20 20h72c14 0 22 -6 26 -21z
M195 672v-55c0 -15 -12 -28 -27 -28h-70c-15 0 -27 13 -27 28v55c0 15 12 28 27 28h70c15 0 27 -13 27 -28zM394 672v-55c0 -15 -12 -28 -27 -28h-70c-15 0 -27 13 -27 28v55c0 15 12 28 27 28h70c15 0 27 -13 27 -28z" />
    <glyph glyph-name="Ydieresis" unicode="&#x178;" horiz-adv-x="509" 
d="M221 0c-16 0 -29 13 -29 28v300l-177 350c-2 4 -2 8 -2 10c0 12 8 21 22 21h64c16 0 23 -5 36 -31l119 -230l119 230c13 26 20 31 36 31h64c14 0 22 -9 22 -21c0 -2 0 -6 -2 -10l-177 -350v-300c0 -15 -13 -28 -29 -28h-66zM418 862v-55c0 -15 -12 -28 -27 -28h-70
c-15 0 -27 13 -27 28v55c0 15 12 28 27 28h70c15 0 27 -13 27 -28zM219 862v-55c0 -15 -12 -28 -27 -28h-70c-15 0 -27 13 -27 28v55c0 15 12 28 27 28h70c15 0 27 -13 27 -28z" />
    <glyph glyph-name="fraction" unicode="&#x2044;" horiz-adv-x="397" 
d="M376 714c0 -3 -1 -7 -2 -11l-265 -693c-10 -26 -18 -27 -33 -27h-38c-12 0 -18 8 -18 18c0 3 1 7 3 11l265 693c9 25 18 26 33 26h38c11 0 17 -8 17 -17z" />
    <glyph glyph-name="Euro" unicode="&#x20ac;" horiz-adv-x="597" 
d="M119 217h-62c-15 0 -28 13 -28 29v41c0 16 13 29 28 29h56v68h-56c-15 0 -28 13 -28 29v41c0 16 13 29 28 29h60c18 145 93 248 243 248c114 0 181 -62 203 -128c2 -4 2 -8 2 -12c-1 -10 -6 -19 -17 -23l-50 -24c-3 -1 -7 -2 -10 -2c-12 0 -23 6 -27 17
c-17 48 -52 68 -101 68c-51 0 -112 -35 -126 -144h177c15 0 28 -13 28 -29v-41c0 -16 -13 -29 -28 -29h-184v-68h117c15 0 28 -13 28 -29v-41c0 -16 -13 -29 -28 -29h-109c14 -109 75 -144 126 -144c49 0 84 20 101 68c4 11 15 17 27 17c3 0 7 -1 10 -2l50 -24
c11 -4 16 -13 17 -23c0 -4 0 -8 -2 -12c-22 -66 -89 -128 -203 -128c-150 0 -224 103 -242 248z" />
    <glyph glyph-name="guilsinglleft" unicode="&#x2039;" horiz-adv-x="334" 
d="M264 368l-109 -107l109 -107c11 -11 16 -17 16 -31v-47c0 -11 -6 -23 -19 -23c-5 0 -18 0 -24 6l-160 157c-8 8 -14 14 -14 23v44c0 9 6 15 14 23l160 157c6 6 19 6 24 6c13 0 19 -12 19 -23v-47c0 -14 -5 -20 -16 -31z" />
    <glyph glyph-name="guilsinglright" unicode="&#x203a;" horiz-adv-x="334" 
d="M178 261l-109 107c-11 11 -16 17 -16 31v47c0 11 6 23 19 23c5 0 18 0 24 -6l160 -157c8 -8 14 -14 14 -23v-44c0 -9 -6 -15 -14 -23l-160 -157c-6 -6 -19 -6 -24 -6c-13 0 -19 12 -19 23v47c0 14 5 20 16 31z" />
    <glyph glyph-name="fi" unicode="&#xfb01;" horiz-adv-x="505" 
d="M258 408h-95v-380c0 -15 -13 -28 -29 -28h-55c-16 0 -29 13 -29 28v553c0 72 61 129 136 129h240c15 0 28 -13 28 -29v-44c0 -16 -13 -29 -28 -29h-207c-51 0 -56 -26 -56 -59v-39h95c15 0 28 -13 28 -29v-44c0 -16 -13 -29 -28 -29zM341 28v479c0 15 13 28 29 28h55
c16 0 29 -13 29 -28v-479c0 -15 -13 -28 -29 -28h-55c-16 0 -29 13 -29 28z" />
    <glyph glyph-name="fl" unicode="&#xfb02;" horiz-adv-x="514" 
d="M463 681v-653c0 -15 -13 -28 -29 -28h-55c-16 0 -29 13 -29 28v580h-131c-51 0 -56 -26 -56 -59v-39h83c15 0 28 -13 28 -29v-44c0 -16 -13 -29 -28 -29h-83v-380c0 -15 -13 -28 -29 -28h-55c-16 0 -29 13 -29 28v553c0 72 61 129 136 129h249c15 0 28 -13 28 -29z" />
    <glyph glyph-name="daggerdbl" unicode="&#x2021;" horiz-adv-x="412" 
d="M154 524v179c0 15 13 28 29 28h45c16 0 29 -13 29 -28v-179h94c15 0 28 -13 28 -29v-40c0 -16 -13 -29 -28 -29h-94v-255h94c15 0 28 -13 28 -29v-40c0 -16 -13 -29 -28 -29h-94v-177c0 -15 -13 -28 -29 -28h-45c-16 0 -29 13 -29 28v177h-94c-15 0 -28 13 -28 29v40
c0 16 13 29 28 29h94v255h-94c-15 0 -28 13 -28 29v40c0 16 13 29 28 29h94z" />
    <glyph glyph-name="periodcentered" unicode="&#xb7;" horiz-adv-x="189" 
d="M160 296v-55c0 -15 -13 -28 -29 -28h-74c-16 0 -29 13 -29 28v55c0 15 13 28 29 28h74c16 0 29 -13 29 -28z" />
    <glyph glyph-name="quotesinglbase" unicode="&#x201a;" horiz-adv-x="233" 
d="M77 -111h-14c-8 0 -15 9 -15 19v12c0 10 7 19 15 19h14c17 0 39 15 39 39c0 16 -8 22 -18 22h-35c-15 0 -27 12 -27 27v57c0 15 12 27 27 27h79c14 0 26 -12 26 -27v-84c0 -77 -50 -111 -91 -111z" />
    <glyph glyph-name="quotedblbase" unicode="&#x201e;" horiz-adv-x="438" 
d="M77 -111h-14c-8 0 -15 9 -15 19v12c0 10 7 19 15 19h14c17 0 39 15 39 39c0 16 -8 22 -18 22h-35c-15 0 -27 12 -27 27v57c0 15 12 27 27 27h79c14 0 26 -12 26 -27v-84c0 -77 -50 -111 -91 -111zM282 -111h-14c-8 0 -15 9 -15 19v12c0 10 7 19 15 19h14
c17 0 39 15 39 39c0 16 -8 22 -18 22h-35c-15 0 -27 12 -27 27v57c0 15 12 27 27 27h79c14 0 26 -12 26 -27v-84c0 -77 -50 -111 -91 -111z" />
    <glyph glyph-name="perthousand" unicode="&#x2030;" horiz-adv-x="908" 
d="M555 266c-30 0 -48 -22 -48 -49v-122c0 -27 18 -49 48 -49s48 22 48 49v122c0 27 -18 49 -48 49zM179 639c-30 0 -48 -22 -48 -49v-122c0 -27 18 -49 48 -49s48 22 48 49v122c0 27 -18 49 -48 49zM179 349c-54 0 -125 40 -125 124v112c0 84 71 124 125 124
s125 -40 125 -124v-112c0 -84 -71 -124 -125 -124zM728 266c-30 0 -48 -22 -48 -49v-122c0 -27 18 -49 48 -49s48 22 48 49v122c0 27 -18 49 -48 49zM641 303c23 21 54 33 87 33c54 0 125 -40 125 -124v-112c0 -84 -71 -124 -125 -124c-29 0 -62 11 -87 34
c-25 -23 -58 -34 -86 -34c-54 0 -125 40 -125 124v112c0 84 71 124 125 124c33 0 63 -12 86 -33zM538 692c0 -3 -1 -7 -2 -11l-277 -724c-10 -26 -18 -27 -33 -27h-38c-12 0 -18 8 -18 18c0 3 1 7 3 11l277 724c9 25 18 26 33 26h38c11 0 17 -8 17 -17z" />
    <glyph glyph-name="Acircumflex" unicode="&#xc2;" horiz-adv-x="525" 
d="M195 709h134c12 0 21 -8 23 -18l151 -653c2 -8 3 -16 3 -17c0 -11 -9 -21 -22 -21h-74c-12 0 -19 10 -22 22l-30 126h-192l-30 -126c-3 -12 -10 -22 -22 -22h-74c-13 0 -22 10 -22 21c0 1 1 9 3 17l151 653c2 10 11 18 23 18zM290 919c17 0 22 -11 30 -22l78 -116
c2 -3 4 -8 4 -11c0 -5 -4 -10 -16 -10h-53c-9 0 -13 4 -20 12l-50 63l-50 -63c-7 -8 -11 -12 -20 -12h-53c-12 0 -16 5 -16 10c0 3 2 8 4 11l78 116c8 11 13 22 30 22h54zM335 252l-73 332l-73 -332h146z" />
    <glyph glyph-name="Ecircumflex" unicode="&#xca;" horiz-adv-x="458" 
d="M397 0h-313c-16 0 -29 13 -29 28v653c0 15 13 28 29 28h308c15 0 28 -13 28 -29v-48c0 -16 -13 -29 -28 -29h-214v-177h184c15 0 28 -13 28 -29v-47c0 -16 -13 -29 -28 -29h-184v-215h219c15 0 28 -13 28 -29v-48c0 -16 -13 -29 -28 -29zM260 920c17 0 22 -11 30 -22
l78 -116c2 -3 4 -8 4 -11c0 -5 -4 -10 -16 -10h-53c-9 0 -13 4 -20 12l-50 63l-50 -63c-7 -8 -11 -12 -20 -12h-53c-12 0 -16 5 -16 10c0 3 2 8 4 11l78 116c8 11 13 22 30 22h54z" />
    <glyph glyph-name="Aacute" unicode="&#xc1;" horiz-adv-x="525" 
d="M335 252l-73 332l-73 -332h146zM195 709h134c12 0 21 -8 23 -18l151 -653c2 -8 3 -16 3 -17c0 -11 -9 -21 -22 -21h-74c-12 0 -19 10 -22 22l-30 126h-192l-30 -126c-3 -12 -10 -22 -22 -22h-74c-13 0 -22 10 -22 21c0 1 1 9 3 17l151 653c2 10 11 18 23 18zM376 878
l-64 -91c-12 -16 -17 -21 -36 -21h-36c-15 0 -24 9 -24 21c0 5 1 10 4 15l35 76c7 15 21 28 36 28h66c11 0 22 -9 22 -19c0 -2 -1 -6 -3 -9z" />
    <glyph glyph-name="Edieresis" unicode="&#xcb;" horiz-adv-x="458" 
d="M397 0h-313c-16 0 -29 13 -29 28v653c0 15 13 28 29 28h308c15 0 28 -13 28 -29v-48c0 -16 -13 -29 -28 -29h-214v-177h184c15 0 28 -13 28 -29v-47c0 -16 -13 -29 -28 -29h-184v-215h219c15 0 28 -13 28 -29v-48c0 -16 -13 -29 -28 -29zM194 865v-55
c0 -15 -12 -28 -27 -28h-70c-15 0 -27 13 -27 28v55c0 15 12 28 27 28h70c15 0 27 -13 27 -28zM393 865v-55c0 -15 -12 -28 -27 -28h-70c-15 0 -27 13 -27 28v55c0 15 12 28 27 28h70c15 0 27 -13 27 -28z" />
    <glyph glyph-name="Egrave" unicode="&#xc8;" horiz-adv-x="458" 
d="M397 0h-313c-16 0 -29 13 -29 28v653c0 15 13 28 29 28h308c15 0 28 -13 28 -29v-48c0 -16 -13 -29 -28 -29h-214v-177h184c15 0 28 -13 28 -29v-47c0 -16 -13 -29 -28 -29h-184v-215h219c15 0 28 -13 28 -29v-48c0 -16 -13 -29 -28 -29zM208 787l-64 91c-2 3 -3 7 -3 9
c0 10 11 19 22 19h66c15 0 29 -13 36 -28l35 -76c3 -5 4 -10 4 -15c0 -12 -9 -21 -24 -21h-36c-19 0 -24 5 -36 21z" />
    <glyph glyph-name="Iacute" unicode="&#xcd;" horiz-adv-x="246" 
d="M55 28v653c0 15 13 28 29 28h65c16 0 29 -13 29 -28v-653c0 -15 -13 -28 -29 -28h-65c-16 0 -29 13 -29 28zM229 877l-64 -91c-12 -16 -17 -21 -36 -21h-36c-15 0 -24 9 -24 21c0 5 1 10 4 15l35 76c7 15 21 28 36 28h66c11 0 22 -9 22 -19c0 -2 -1 -6 -3 -9z" />
    <glyph glyph-name="Icircumflex" unicode="&#xce;" horiz-adv-x="265" 
d="M71 28v653c0 15 13 28 29 28h65c16 0 29 -13 29 -28v-653c0 -15 -13 -28 -29 -28h-65c-16 0 -29 13 -29 28zM159 921c17 0 22 -11 30 -22l78 -116c2 -3 4 -8 4 -11c0 -5 -4 -10 -16 -10h-53c-9 0 -13 4 -20 12l-50 63l-50 -63c-7 -8 -11 -12 -20 -12h-53
c-12 0 -16 5 -16 10c0 3 2 8 4 11l78 116c8 11 13 22 30 22h54z" />
    <glyph glyph-name="Idieresis" unicode="&#xcf;" horiz-adv-x="300" 
d="M85 28v653c0 15 13 28 29 28h65c16 0 29 -13 29 -28v-653c0 -15 -13 -28 -29 -28h-65c-16 0 -29 13 -29 28zM112 864v-55c0 -15 -12 -28 -27 -28h-70c-15 0 -27 13 -27 28v55c0 15 12 28 27 28h70c15 0 27 -13 27 -28zM311 864v-55c0 -15 -12 -28 -27 -28h-70
c-15 0 -27 13 -27 28v55c0 15 12 28 27 28h70c15 0 27 -13 27 -28z" />
    <glyph glyph-name="Igrave" unicode="&#xcc;" horiz-adv-x="245" 
d="M66 28v653c0 15 13 28 29 28h65c16 0 29 -13 29 -28v-653c0 -15 -13 -28 -29 -28h-65c-16 0 -29 13 -29 28zM80 786l-64 91c-2 3 -3 7 -3 9c0 10 11 19 22 19h66c15 0 29 -13 36 -28l35 -76c3 -5 4 -10 4 -15c0 -12 -9 -21 -24 -21h-36c-19 0 -24 5 -36 21z" />
    <glyph glyph-name="Oacute" unicode="&#xd3;" horiz-adv-x="505" 
d="M336 175v361c0 52 -33 89 -84 89s-84 -37 -84 -89v-361c0 -52 33 -89 84 -89s84 37 84 89zM458 536v-361c0 -125 -91 -195 -206 -195s-206 70 -206 195v361c0 125 91 195 206 195s206 -70 206 -195zM364 877l-64 -91c-12 -16 -17 -21 -36 -21h-36c-15 0 -24 9 -24 21
c0 5 1 10 4 15l35 76c7 15 21 28 36 28h66c11 0 22 -9 22 -19c0 -2 -1 -6 -3 -9z" />
    <glyph glyph-name="Ocircumflex" unicode="&#xd4;" horiz-adv-x="505" 
d="M458 536v-361c0 -125 -91 -195 -206 -195s-206 70 -206 195v361c0 125 91 195 206 195s206 -70 206 -195zM336 175v361c0 52 -33 89 -84 89s-84 -37 -84 -89v-361c0 -52 33 -89 84 -89s84 37 84 89zM282 920c17 0 22 -11 30 -22l78 -116c2 -3 4 -8 4 -11
c0 -5 -4 -10 -16 -10h-53c-9 0 -13 4 -20 12l-50 63l-50 -63c-7 -8 -11 -12 -20 -12h-53c-12 0 -16 5 -16 10c0 3 2 8 4 11l78 116c8 11 13 22 30 22h54z" />
    <glyph glyph-name="apple" horiz-adv-x="617" 
d="M558 371c0 -55 -40 -95 -95 -95h-73c11 -16 17 -36 17 -56c0 -55 -40 -95 -95 -95h-254v254c0 55 40 95 95 95c20 0 40 -6 56 -17v73c0 55 40 95 95 95s95 -40 95 -95v-64h64c55 0 95 -40 95 -95zM541 371c0 46 -32 78 -78 78h-81v81c0 46 -32 78 -78 78s-78 -32 -78 -78
v-237h237c46 0 78 32 78 78z" />
    <glyph glyph-name="Ograve" unicode="&#xd2;" horiz-adv-x="505" 
d="M336 175v361c0 52 -33 89 -84 89s-84 -37 -84 -89v-361c0 -52 33 -89 84 -89s84 37 84 89zM458 536v-361c0 -125 -91 -195 -206 -195s-206 70 -206 195v361c0 125 91 195 206 195s206 -70 206 -195zM208 787l-64 91c-2 3 -3 7 -3 9c0 10 11 19 22 19h66
c15 0 29 -13 36 -28l35 -76c3 -5 4 -10 4 -15c0 -12 -9 -21 -24 -21h-36c-19 0 -24 5 -36 21z" />
    <glyph glyph-name="Uacute" unicode="&#xda;" horiz-adv-x="514" 
d="M340 175v506c0 15 13 28 29 28h64c16 0 29 -13 29 -28v-506c0 -125 -91 -195 -206 -195s-206 70 -206 195v506c0 15 13 28 29 28h64c16 0 29 -13 29 -28v-506c0 -52 33 -89 84 -89s84 37 84 89zM370 878l-64 -91c-12 -16 -17 -21 -36 -21h-36c-15 0 -24 9 -24 21
c0 5 1 10 4 15l35 76c7 15 21 28 36 28h66c11 0 22 -9 22 -19c0 -2 -1 -6 -3 -9z" />
    <glyph glyph-name="Ucircumflex" unicode="&#xdb;" horiz-adv-x="514" 
d="M340 175v506c0 15 13 28 29 28h64c16 0 29 -13 29 -28v-506c0 -125 -91 -195 -206 -195s-206 70 -206 195v506c0 15 13 28 29 28h64c16 0 29 -13 29 -28v-506c0 -52 33 -89 84 -89s84 37 84 89zM284 921c17 0 22 -11 30 -22l78 -116c2 -3 4 -8 4 -11c0 -5 -4 -10 -16 -10
h-53c-9 0 -13 4 -20 12l-50 63l-50 -63c-7 -8 -11 -12 -20 -12h-53c-12 0 -16 5 -16 10c0 3 2 8 4 11l78 116c8 11 13 22 30 22h54z" />
    <glyph glyph-name="Ugrave" unicode="&#xd9;" horiz-adv-x="514" 
d="M340 175v506c0 15 13 28 29 28h64c16 0 29 -13 29 -28v-506c0 -125 -91 -195 -206 -195s-206 70 -206 195v506c0 15 13 28 29 28h64c16 0 29 -13 29 -28v-506c0 -52 33 -89 84 -89s84 37 84 89zM217 786l-64 91c-2 3 -3 7 -3 9c0 10 11 19 22 19h66c15 0 29 -13 36 -28
l35 -76c3 -5 4 -10 4 -15c0 -12 -9 -21 -24 -21h-36c-19 0 -24 5 -36 21z" />
    <glyph glyph-name="dotlessi" unicode="&#x131;" horiz-adv-x="250" 
d="M50 28v479c0 15 13 28 29 28h55c16 0 29 -13 29 -28v-479c0 -15 -13 -28 -29 -28h-55c-16 0 -29 13 -29 28z" />
    <glyph glyph-name="circumflex" unicode="&#x2c6;" horiz-adv-x="398" 
d="M222 751c17 0 22 -11 30 -22l78 -116c2 -3 4 -8 4 -11c0 -5 -4 -10 -16 -10h-53c-9 0 -13 4 -20 12l-50 63l-50 -63c-7 -8 -11 -12 -20 -12h-53c-12 0 -16 5 -16 10c0 3 2 8 4 11l78 116c8 11 13 22 30 22h54z" />
    <glyph glyph-name="tilde" unicode="&#x2dc;" horiz-adv-x="463" 
d="M230 625c-16 9 -33 18 -58 18c-26 0 -50 -22 -60 -28c-3 -2 -7 -4 -10 -4c-7 0 -15 9 -42 54c-3 5 -4 9 -4 12c0 6 4 9 12 15c13 10 55 40 100 40c26 0 44 -11 60 -19c16 -9 33 -18 58 -18c26 0 51 24 61 30c3 2 7 4 10 4c7 0 15 -9 42 -54c3 -5 4 -9 4 -12
c0 -6 -4 -9 -12 -15c-13 -10 -56 -42 -101 -42c-26 0 -44 11 -60 19z" />
    <glyph glyph-name="macron" unicode="&#xaf;" horiz-adv-x="445" 
d="M393 639c0 -15 -12 -27 -27 -27h-288c-15 0 -27 12 -27 27v29c0 15 12 27 27 27h288c15 0 27 -12 27 -27v-29z" />
    <glyph glyph-name="breve" unicode="&#x2d8;" horiz-adv-x="443" 
d="M271 595h-100c-45 0 -120 83 -120 118c0 10 10 15 18 15h62c22 0 28 -10 36 -23c9 -15 20 -35 54 -35s45 20 54 35c8 13 14 23 36 23h62c8 0 18 -5 18 -15c0 -35 -75 -118 -120 -118z" />
    <glyph glyph-name="dotaccent" unicode="&#x2d9;" horiz-adv-x="225" 
d="M173 618c0 -15 -12 -27 -27 -27h-68c-15 0 -27 12 -27 27v52c0 15 12 27 27 27h68c15 0 27 -12 27 -27v-52z" />
    <glyph glyph-name="ring" unicode="&#x2da;" horiz-adv-x="302" 
d="M266 675c0 -63 -52 -116 -116 -116c-62 0 -114 53 -114 116c0 62 52 115 114 115c64 0 116 -53 116 -115zM218 675c0 36 -29 68 -68 68c-38 0 -66 -32 -66 -68s28 -69 66 -69c39 0 68 33 68 69z" />
    <glyph glyph-name="cedilla" unicode="&#xb8;" horiz-adv-x="330" 
d="M282 -129c0 -51 -34 -98 -113 -98c-28 0 -57 15 -82 34c-6 4 -8 11 -8 16c0 4 0 8 3 12l10 14c3 5 9 9 15 9c3 0 8 -2 12 -5c19 -13 27 -23 49 -23c26 0 39 15 39 38c0 29 -18 36 -35 36s-19 -16 -33 -16c-2 0 -4 0 -7 1l-22 7c-8 2 -12 9 -12 17c0 1 0 4 1 6l29 101
c3 8 11 13 19 13c2 0 4 0 6 -1l18 -6c8 -2 14 -10 14 -18c0 -2 0 -4 -1 -6l-17 -54c16 6 20 7 37 7c31 0 78 -31 78 -84z" />
    <glyph glyph-name="hungarumlaut" unicode="&#x2dd;" horiz-adv-x="449" 
d="M225 722l-64 -91c-12 -16 -17 -21 -36 -21h-36c-15 0 -24 9 -24 21c0 5 1 10 4 15l35 76c7 15 21 28 36 28h66c11 0 22 -9 22 -19c0 -2 -1 -6 -3 -9zM406 722l-64 -91c-12 -16 -17 -21 -36 -21h-36c-15 0 -24 9 -24 21c0 5 1 10 4 15l35 76c7 15 21 28 36 28h66
c11 0 22 -9 22 -19c0 -2 -1 -6 -3 -9z" />
    <glyph glyph-name="ogonek" unicode="&#x2db;" horiz-adv-x="334" 
d="M286 -158c0 -4 -2 -8 -5 -11c-22 -26 -54 -50 -94 -50c-71 0 -108 39 -108 93c0 58 52 93 77 99c23 6 40 6 60 6c13 0 21 -4 21 -14v-23c0 -8 -2 -12 -16 -12c-40 0 -81 -10 -81 -58c0 -32 24 -45 48 -45c20 0 39 13 58 37c5 7 8 7 10 7c3 0 7 0 10 -3l11 -10
c5 -5 9 -10 9 -16z" />
    <glyph glyph-name="caron" unicode="&#x2c7;" horiz-adv-x="432" 
d="M181 596c-13 0 -19 12 -27 23l-80 107c-2 4 -3 8 -3 11c0 10 8 16 18 16h35c15 0 20 -9 30 -21l50 -56l50 56c10 12 15 21 30 21h35c10 0 18 -6 18 -16c0 -3 -1 -7 -3 -11l-80 -107c-8 -11 -14 -23 -27 -23h-46z" />
    <glyph glyph-name="currency" unicode="&#xa4;" horiz-adv-x="673" 
d="M610 353c0 -52 -16 -103 -44 -150c16 -15 41 -41 59 -57c4 -6 8 -13 8 -18c0 -6 -3 -13 -8 -19l-43 -42c-5 -5 -10 -7 -16 -7c-7 0 -15 2 -20 7l-58 57c-46 -29 -99 -47 -151 -47c-54 0 -105 16 -151 45l-58 -58c-5 -5 -10 -7 -16 -7c-8 0 -15 2 -20 7l-42 42
c-5 6 -8 12 -8 18s3 13 8 18l56 57c-28 48 -46 100 -46 154c0 52 17 102 44 149l-57 59c-6 5 -8 11 -8 17s2 14 8 19l42 42c5 5 12 8 19 8c6 0 12 -3 17 -8l57 -58c47 30 101 47 155 47c50 0 102 -17 147 -45l59 59c5 5 13 7 20 7c6 0 11 -2 16 -7l43 -42c5 -5 7 -13 7 -19
s-2 -12 -7 -17l-58 -58c29 -48 46 -100 46 -153zM504 353c0 93 -76 168 -167 168c-94 0 -170 -75 -170 -168c0 -94 76 -169 170 -169c91 0 167 75 167 169z" />
    </font>
</defs>
</svg>
